<?xml version="1.0" encoding="utf-8"?>
<!-- Generator: Adobe Illustrator 24.1.1, SVG Export Plug-In . SVG Version: 6.00 Build 0)  -->
<svg version="1.1" id="Capa_3" xmlns="http://www.w3.org/2000/svg" xmlns:xlink="http://www.w3.org/1999/xlink" x="0px" y="0px"
	 viewBox="0 0 841.9 1190.6" style="enable-background:new 0 0 841.9 1190.6;" xml:space="preserve">
<style type="text/css">
	.st0{fill:#CC0000;}
	.st1{fill:#FD7430;}
	.st2{fill:#F09D56;}
	.st3{fill:#A15100;}
	.st4{fill:#FFFFFF;}
	.st5{fill:#FFCA00;}
	.st6{fill:#E8E8E8;}
	.st7{fill:#D1894B;}
	.st8{fill:#FFA532;}
	.st9{fill:#2E2E2E;}
	.st10{fill:#FF6E83;}
	.st11{fill:#A35824;}
	.st12{fill:#FE722E;}
	.st13{fill:none;stroke:#990000;stroke-width:10;stroke-miterlimit:10;}
	.st14{fill:none;stroke:#990000;stroke-width:5;stroke-miterlimit:10;}
	.st15{fill:none;stroke:#000000;stroke-width:4;stroke-linecap:round;stroke-miterlimit:10;}
	.st16{fill:none;stroke:#000000;stroke-width:4;stroke-miterlimit:10;}
	.st17{fill:none;stroke:#000000;stroke-width:3;stroke-miterlimit:10;}
	.st18{fill:none;stroke:#000000;stroke-width:2;stroke-linecap:round;stroke-miterlimit:10;}
	.st19{fill:none;stroke:#000000;stroke-width:2;stroke-miterlimit:10;}
	.st20{fill:none;stroke:#000000;stroke-miterlimit:10;}
	.st21{fill:none;stroke:#000000;stroke-width:0.75;stroke-miterlimit:10;}
	.st22{fill:none;stroke:#000000;stroke-width:0.75;stroke-linecap:round;stroke-miterlimit:10;}
	.st23{fill:none;stroke:#000000;stroke-linecap:round;stroke-miterlimit:10;}
	.st24{fill:none;stroke:#000000;stroke-width:6;stroke-miterlimit:10;}
	.st25{fill:none;stroke:#000000;stroke-width:6;stroke-linejoin:round;stroke-miterlimit:10;}
	.st26{fill:none;stroke:#000000;stroke-width:3;stroke-linecap:round;stroke-miterlimit:10;}
	.st27{fill:none;stroke:#000000;stroke-width:0.5;stroke-linecap:round;stroke-miterlimit:10;}
	.st28{fill:none;stroke:#000000;stroke-width:0.5;stroke-miterlimit:10;}
	.st29{enable-background:new    ;}
	.st30{fill:#EDC400;}
</style>
<g id="XMLID_2_">
	<g>
		<path class="st0" d="M715.2,938.3c0.2,4.9-13.5,10.1-28.9,16c-15.7,6-22.4,6.2-23.2,10.3c-1.1,5.4,9.5,9.5,25.8,24.8
			c3.5,3.3,23.1,21.7,20.1,26.3c-1.9,3-11.5-1.8-28.4-6.2c-17.7-4.6-32.8-5.6-63-7.8c-30.3-2.1-40.6-0.8-42.3-5.7
			c0.6-2.2,1.2-4.3,1.8-6.5c3.1-4.3,10.2-10.8,25-20.4c5.1-2.5,6.8-8.7,9.8-41.8c0.4-4.2,0.7-7.8,0.9-10.9c10,0.9,24.9,2.5,43,5.2
			C683.5,926,714.9,930.9,715.2,938.3z"/>
		<path class="st1" d="M270.4,545.1c-1.5,0-3.1,0-4.9-0.1c-12.3-1.1-21.9-6.6-27.5-10.1c-10-6.2-24.2-16.6-41.8-36
			c-9.8-10.8-14.7-16.3-19.4-24.4c-5.7-9.9-16.8-29.4-11.2-49.4c2.1-7.5,7.4-13.7,18-25.7c8.7-9.9,18.5-21,34.8-33.3
			c23.6-17.7,39.8-29.8,59.2-26.7c13,2.1,22.3,10.1,27.3,15.3c0.4,12.4,0.8,20.9,1,23.9c0,0.8,0.2,2.8,0.5,6.8
			c0.3,4.3,0.5,5.8,0.8,8c0.6,3.3,0.9,5,1.9,6.5c0.8,1.2,1.7,1.9,4.9,3.9c3.7,2.2,5.5,3.4,8.5,4.7c5.1,2.3,9.2,3.6,10.9,4.1
			c14.1,4.2,22.6,6.6,34,8.3c16.6,2.5,38.3,5.7,62.4-2.2c15.1-4.9,28.4-13.3,30.9-14.9c1.2-0.7-0.1,0,12.5-8.6
			c7.6-5.3,8.7-6,9.7-7.9c0.5-1,1.5-3.4,0.4-16.3c-0.3-3.8-0.5-5.7-1-8.7c-1.4-9-1.7-16.8-2.3-26.5l0,0c3-2.3,7.5-5.3,13.5-7.5
			c7-2.6,12.6-3,19.7-3.5c10-0.7,17.8,0.2,22.8,0.8c8.1,1,14.1,2.5,18.2,3.5c4.7,1.2,11.7,3,20.5,6.6c6.7,2.8,11.6,5.4,15.1,7.4
			c9.5,5.2,16,10,18.2,11.6c7,5.2,10.5,7.9,12.8,11.2c3.5,5.3,4.5,11.2,4.3,22.8c-0.3,14-2.2,25.4-4.3,36c-3.1,15.7-5,25.4-9.7,38.7
			c-0.9,2.5-5.8,16.5-13.9,29.8c-1.5,2.4-4.2,6.7-8.5,11.6c-3.8,4.3-6,6.7-9.7,8.9c-7.1,4.1-14.1,4-16.6,3.9c-2.1-0.1-4-0.3-5.7-0.7
			c-0.6,3.5-1.5,8.3-2.8,14c-0.5,2-2.2,9.5-7,24.5c-1.3,4.2-3.8,12.1-7.6,22.6c-2.1,0.6-4.9,1.4-8.4,2.1c-5.1,1-13.4,2.6-23.6,1.1
			c-4.7-0.7-13-1.9-21.6-7.3c-4.2-2.7-3.6-3.2-12.8-11.4c-9-8-13.6-12-19.7-15.1c-6.7-3.3-12.4-4.4-16.6-5.2
			c-13.2-2.5-23.5-0.7-26.1-0.2c-10,1.9-17,5.6-21.1,7.7c-3.3,1.7-11.1,6.2-19.4,14.3c-8.2,8-7.4,10.4-17,20.5
			c-7,7.4-10.5,11-15.9,13.5c-9.3,4.4-18.4,3.4-28.3,2.3c-8.9-1-16-3-20.8-4.7c-2-3.5-4-7.4-5.9-11.7
			C275.2,568.6,272,554.9,270.4,545.1z M517.2,531.5c1-6.7,0.2-12-0.6-17c-0.5-3.3-1.3-8.4-3.9-14.5c-1.5-3.8-3.7-9.1-8.5-14.4
			c-2.2-2.5-8.1-8.8-18-11.4c-4.2-1.1-11.9-3.1-18.2,1.1c-3.3,2.2-4.8,5.1-6.3,8.3c-4.7,9.5-3.6,19.5-3.2,23.6
			c0.1,0.6,0.1,1.2,0.2,1.6c0.8,3.6,2.1,8.9,4.3,15c2.8,7.7,4.3,12,7.9,16.6c2.1,2.8,7.3,9.2,16.1,11.9c1.8,0.5,3.2,0.8,4,0.9
			c1.8,0.3,12.1,1.9,19.1-4.3C515.2,544.1,516.2,537.7,517.2,531.5z M479.4,430.8c1.1-5.8,1.9-9.8-0.2-12c-2-2.1-5.8-1.6-11.5-0.6
			c-5.7,0.9-9.9,2.7-13.2,4.2c-3.9,1.7-6.7,2.9-10,5.5c-2.3,1.8-5.6,4.4-8.2,9.1c-1.3,2.3-3.4,6.2-3.1,11.5
			c0.1,2.1,0.3,6.8,3.8,10.4c3.5,3.5,8,3.9,10.4,4.1c6.5,0.5,11.4-2.3,14.1-3.8c6.1-3.5,9.3-8.1,10.6-10c2-2.9,3.1-5.5,4.4-8.7
			C477.4,437.9,478.6,434.8,479.4,430.8z M366.5,517.5c0-0.6,0-1,0-1.2c0-1.8-0.1-7-1.7-12.5c-1.1-3.7-2.7-8.9-7.2-13.7
			c-2.2-2.3-5.6-6-10.8-6.9c-1.4-0.2-6.1-0.8-14.5,4.6c-14.7,9.6-20.3,24.4-20.9,26.1c-1.6,4.5-5.8,16.4-1.5,29.7
			c1.3,4.2,3.3,10.3,9.3,14.5c0.7,0.5,3.6,2.4,7.9,3.3c0.3,0.1,1,0.2,2.1,0.3l0,0c2,0.2,5,0.3,8.5-0.5c8.2-1.9,13.2-7.3,16.3-10.6
			c5.3-5.7,7.6-11.4,8.8-14.2c0.2-0.4,3.3-8.3,3.6-17.7C366.5,518.3,366.5,517.9,366.5,517.5z M363.5,463.9c2.1-3.3,2-6.6,1.9-8.5
			c-0.2-5.1-2.5-8.7-4.1-11.2c-0.8-1.3-2.2-3.4-4.6-5.6c-3.3-2.9-6.4-4.1-9.9-5.4c-4.3-1.6-7.8-2.2-9.9-2.5c-2-0.3-4.2-0.6-7.2-0.6
			c-4.8,0.1-7.6,0.2-9.3,2.1c-2.2,2.5-1.3,6.6-0.6,9.7s1.9,5.1,3.5,7.9c2.6,4.6,5.4,7.7,6.6,8.9c1.4,1.4,3.8,3.9,7.5,6.4
			c2.9,1.9,6.1,4,10.8,4.6c2.1,0.3,5.3,0.7,8.9-0.8C358.3,468.5,361.4,467.1,363.5,463.9z"/>
		<path class="st1" d="M595.8,821c4.1,2.4,7.5,4.6,10.2,6.3c6,4,7.7,5.4,9.1,7.3c1.4,2,2.3,4,3.9,8.1c1.2,3.1,2.7,6.8,3.7,11.8
			c0.8,3.7,1.2,6,1,9.3s-1.1,5.7-1.9,8.3c-1.2,3.7-1.9,5.5-3.3,7.3c-0.6,0.8-1.4,1.6-3.3,2.7c-1.2,0.7-3,1.6-5.4,2.7
			c-1.3,0.6-2.4,1.1-3.5,1.6c-4.2-3.3-10.7-6-22.1-9.3c-18.5-5.3-33-7.8-41.9-8.9c-2.4-8.6-3.7-15.3-3.8-18.3c-0.1-1.3,0-2.5,0-2.5
			c0-2.3,0.2-4.1,0.4-5.8c1-8.8,3.6-12.7,3-19.2c-0.7-6.9-0.8-10.2-2.6-12.5c-0.7-0.8-1.3-1.5-1.8-1.9c2-4.1,4.3-8.3,7-12.7
			c6.1-10.1,12.4-18.5,18.2-25.3l0,0c0.6-0.3,1-0.7,1.1-1.3c0.6-2.9-7.3-4.6-10.7-9.4c2.1-6.8,4.2-13.7,6.3-20.5v-0.1
			c0.3-0.8,0.3-1.5-0.1-2c-2.4-3.5-15.7,6.4-24.8,1c-6.5-3.9-5.9-12.7-10.1-12.9c-4.2-0.3-5.6,8.6-11,12c0.2-1.9,0.5-3.7,0.7-5.6
			c0.1-1.8-6.2-2.1-9.5-5.3c0.4-4.5,0.9-9,1.3-13.5c0.3-0.7,0.4-1.4,0.2-1.9c-0.1-0.2-0.1-0.4-0.3-0.5c-2.3-2.6-11.1,5.4-18.2,2.2
			c-6.3-2.9-5.7-12.2-9.9-12.6c-4.2-0.4-5.1,8.7-12.7,11.8c-7.9,3.2-16.1-2.9-17.7-0.4c-0.1,0.2-0.2,0.3-0.2,0.5c0,0,0,0.1,0,0.2
			c-0.1,3.2-0.2,6.3-0.4,9.5c-2.2,0.3-4.6,0.4-7.3-0.3c-5.2-1.3-9.1-4.8-11.3-6.8c-6.4-5.8-6.5-10.2-9.5-10.2
			c-4.6-0.1-4.6,10.3-13.2,14c-4.4,1.9-11.5,2.2-13.2,2.3c-1.3,0.1-2.4,0.1-3.3,0.1l0,0c-0.6-1.3-1.2-2.5-1.9-3.7
			c-0.1-0.3-0.2-0.6-0.4-0.8c-2.1-2-7.8,4.2-13.9,2.1c-5.8-2-6.8-9.4-9.7-9c-3.2,0.4-1.9,9.4-7.4,12.9c-5.3,3.4-12.9-2.2-15.1,0.9
			c-0.2,0.3-0.6,0.9,0.3,5.4c0,0.2,0.1,0.3,0.1,0.4l0,0c-0.1-0.6-0.4-1.1-0.9-1.6c-1.7-1.5-5.7-1.8-15.5,3.6l-0.5-0.8
			c-0.8-2.6-1.8-6.3-2.9-10.7c-0.9-3.6-1.6-6.2-1.8-7.1c-6.6-25.6-9.9-36.2-12-43c-2.7-8.5-4.2-12.8-5.9-17
			c-0.1-0.2-0.6-1.4-1.4-3.3c1.8-2.9,4.3-6.4,7.7-9.9c2.5-2.6,5-4.7,7.3-6.3c6.3,7,12.2,12.5,17.4,17.4
			c13.2,12.4,24.2,22.7,41.8,32.5c22.5,12.5,37.8,14.1,42.6,14.5c7.7,0.5,15.5-0.3,15.5-0.3c9.9-1,17.2-3.3,19.6-4.1
			c2.5-0.8,11.4-3.9,21.7-10.8c1.6-1.1,7.9-5.4,15.7-13.2c11.9-11.8,18.7-23,24.3-32.3c3.1-5.2,5.7-10,7.9-14.4
			c4,3.5,9.6,8.9,15.6,16.2c9.4,11.5,16.8,24.3,28.4,56.5c4,11.2,8.8,24.5,13.5,41.1c5,17.4,7.9,30.9,8.9,35.8
			C590.8,784.8,593.7,801.5,595.8,821z"/>
		<path class="st0" d="M465,864.7c6.2,0.3,13.8,0.7,23.6,1.2c5.4,0.2,11.4,0.5,18.2,0.8c2.7,0.1,5.6,0.2,8.6,0.3
			c5.3,0.2,10.9,0.4,17.1,0.6c0,0,3.5,0.1,9.7,0.9c8.9,1.1,23.4,3.6,41.9,8.9c11.3,3.3,17.8,6,22.1,9.3c2,1.5,3.5,3.2,4.8,5.2
			c2.6,4,3.2,7.7,2,24.7c-0.2,3.2-0.5,6.8-0.9,10.9c-3,33.1-4.7,39.3-9.8,41.8c-2.4,1.2-4.2,0.8-18.6-2.1
			c-16.2-3.3-24.2-4.9-25.3-5.2c-21.5-5.5-49.5-9.2-67.2-11.2c-6.9-0.8-12.2-1.3-15-1.5c-1-0.1-1.6-0.2-1.9-0.2
			c-4.7-0.4-10.2-0.9-16.6-1.3c-6-0.4-12.7-0.7-20.3-0.8c-3.2,0-6.6,0-10.1,0s-6.9,0.1-10.5,0.3c-5.8,0.3-12,0.7-19.5,1.2
			c-5.4,0.4-11.5,0.9-18.6,1.5c-0.3,0-0.6,0-1,0.1c-5.8,0.5-11.1,0.9-16.1,1.4c-1.2,0.1-2.4,0.2-3.6,0.3c-28.4,2.4-43.9,4-52,6.1
			c-5.7,1.5-10.6,3-14.8,4.5c-1.5,0.5-2.9,1-4.2,1.5c-0.3,0.1-0.6,0.2-1,0.4c-0.6,0.2-1.3,0.5-1.9,0.7s-1.2,0.5-1.8,0.7
			s-1.1,0.4-1.7,0.6s-1.1,0.4-1.6,0.6c-7.5,2.8-12.3,4.2-17.9,1.9l0,0c-0.4-0.2-0.8-0.3-1.2-0.5c-8.4-4-12.8-16.3-21.7-40.8
			c-1.8-4.9-3.1-9-4-12.5c-2.9-10.9-2.1-16,0.4-20c1.8-2.9,4.4-5.1,12.4-8.8c17.2-7.9,32.6-10.3,45.9-12.4c20.5-3.1,30.8-4.7,33.6-5
			c1.3-0.1,2.6-0.3,4-0.4c7.7-0.8,15.3-1.5,22.5-2c10.6-0.8,20.5-1.4,29.3-1.8c11.3-0.5,20.6-0.8,26.8-0.9c2.3,0,4.2-0.1,5.6-0.1
			c9.7-0.2,16.3-0.2,22.1,0C445.5,863.6,452.3,864,465,864.7z"/>
		<path class="st0" d="M583.6,967.2c14.4,2.9,16.2,3.2,18.6,2.1c-14.8,9.6-21.9,16-25,20.4C579.3,982.1,581.5,974.6,583.6,967.2z"/>
		<path class="st2" d="M501.9,736.5c2.6,1.3,5.7,2.5,9,1.8c1-0.2,1.8-0.6,2.6-1.1c5.4-3.4,6.8-12.3,11-12c4.1,0.2,3.6,9,10.1,12.9
			c9,5.4,22.3-4.5,24.8-1c0.4,0.5,0.4,1.2,0.1,2v0.1c-1.5,4.1-9.5,11.2-7.5,18c0.3,0.9,0.7,1.8,1.2,2.5c3.4,4.8,11.2,6.4,10.7,9.4
			c-0.4,0.4-0.8,0.9-1.1,1.3l0,0c-2.2,1.2-7.2,1.2-11,5.4c-3.9,4.3-2,7.8-4.9,9.5c-5.3,3.1-12.1-8.1-23.7-7.5
			c-8.3,0.4-12.1,6.5-16,4.1c-3.8-2.3-1-8.4-5.4-12.6c-5-4.8-13-2.2-13.7-4.7c-0.2-0.8,0.6-1.6,1.9-2.4c3.1-2.1,9-4.7,10.5-9.9
			c1.8-6.2-3.7-12.6-4.8-16c0-0.6,0.1-1.2,0.1-1.8C496.6,733.4,498.9,735,501.9,736.5z M538.9,762c0.1-0.2,2.7-4.5,1-9
			c-2.4-6.6-11.3-7.6-12.7-7.8c-1.9-0.2-7.5-0.8-12,3.1c-0.7,0.6-5.3,4.9-4.2,10.1c1,4.6,5.7,6.7,7.5,7.5
			C525,768.8,535,768.3,538.9,762z"/>
		<path class="st2" d="M537.4,808.3c-2.4,4.8-4.4,9.3-6,13.5l-1.8-0.6c0,0.1,0,0.1-0.1,0.2l-0.4-0.1c-0.4,1-1,2.5-2,4
			c-1.3,1.8-2.8,3.1-4.5,4.1c3.2-7.3,6.9-15.3,11.5-23.5c4.2-7.6,8.5-14.5,12.7-20.6c2.9-1.7,1-5.3,4.9-9.5c3.8-4.2,8.8-4.2,11-5.4
			c-5.8,6.8-12.2,15.1-18.2,25.3C541.7,799.9,539.4,804.2,537.4,808.3z"/>
		<path class="st2" d="M559.4,739.1c-2.1,6.8-4.2,13.7-6.3,20.5c-0.5-0.7-1-1.6-1.2-2.5C549.8,750.3,557.9,743.2,559.4,739.1z"/>
		<path class="st2" d="M510.2,833.4c-6.5,1.1-11.9,0.3-15.1-0.2c-1.4-0.2-3-0.5-4.6-0.8c5.5-16.8,11-33.7,16.6-50.5
			c3.9,2.4,7.7-3.7,16-4.1c11.6-0.6,18.5,10.6,23.7,7.5c-4.2,6.2-8.5,13-12.7,20.6c-4.5,8.2-8.3,16.1-11.5,23.5
			c-2.8,1.7-5.9,2.5-8.7,3.2C512.6,832.9,511.4,833.2,510.2,833.4z"/>
		<path class="st3" d="M540,753c1.6,4.6-0.9,8.8-1,9c-3.9,6.3-14,6.8-20.4,3.9c-1.8-0.8-6.5-2.9-7.5-7.5c-1.1-5.2,3.5-9.5,4.2-10.1
			c4.4-3.9,10-3.3,12-3.1C528.7,745.4,537.6,746.3,540,753z"/>
		<path class="st4" d="M418.5,615.9c1.3,0,2.6,0,4.1-0.3c5.4-0.8,9.1-2.9,14.5-5.9c3-1.7,7.1-4.1,11.4-8.3c4.9-4.8,9.2-9,8.3-12.7
			c-1.1-4.5-9.4-6-19.9-7.8c-9.1-1.6-16-1.5-18.8-1.4c-4.5,0.2-11.1,0.4-19.1,2.8c-7.4,2.3-18.7,5.7-19.4,11.9
			c-0.6,5.5,7.4,10.6,12.1,13.7c6.4,4.1,12.4,5.4,17,6.5C412.4,615.2,415.4,615.9,418.5,615.9z M432.6,651.2L432.6,651.2
			c-0.2-0.1-0.4-0.1-0.5-0.1c0,0,0,0-0.1,0c-1.9-0.5-3.6-1-5.3-1.6c-2.9-1.3-3.9-2.7-6.8-2.9c-0.2,0-0.3,0-0.5,0s-0.4,0-0.6,0
			c-0.5,0-0.9,0.1-1.3,0.2c-1.4,0.4-2.2,1.2-3.7,2.2c-2.1,1.2-4.7,2.5-7.8,3.8c0,0,0,0-0.1,0c-7,2.4-9.7,3.2-10.5,3.4
			c-0.1,0-0.1,0-0.2,0.1h-0.1c-0.7,0.1-1.3,0.3-2,0.4c-0.7,0-1.1,0-1.5,0.2l0,0c0,0-0.4,0.4-0.3,1.5c0.2,1.1,8.2,34.2,29,32.7
			c20.9-1.5,24.4-35.8,24.4-36.4c0,0,0-0.3,0-0.8s0-0.7-0.1-0.8c-0.2-0.5-1.1-0.5-2-0.5c-0.8,0-1.7-0.1-2.5-0.1
			C438,652.9,434.1,651.6,432.6,651.2z M539.4,577.9c-0.3,0.9-0.6,1.8-1,2.7c-4.2,11.8-6.3,17.7-9.5,25.3c-1.8,4.2-4.1,9.7-7.3,16.1
			c-2.2,4.4-4.8,9.2-7.9,14.4c-5.6,9.3-12.4,20.5-24.3,32.3c-7.9,7.8-14.1,12-15.7,13.2c-10.3,6.9-19.2,10-21.7,10.8
			s-9.7,3.1-19.6,4.1c0,0-7.8,0.8-15.5,0.3c-4.8-0.3-20-1.9-42.6-14.5c-17.6-9.8-28.6-20.1-41.8-32.5c-5.2-4.9-11-10.4-17.4-17.4
			c-3.9-4.3-7.9-9.1-12-14.6c-4.5-5.9-9.8-13-15-22.4c4.8,1.7,11.9,3.8,20.8,4.7c9.9,1.1,18.9,2,28.3-2.3c5.4-2.5,8.9-6.2,15.9-13.5
			c9.6-10.1,8.9-12.5,17-20.5c8.3-8.1,16.1-12.6,19.4-14.3c4.1-2.2,11.1-5.9,21.1-7.7c2.6-0.5,12.9-2.3,26.1,0.2
			c4.3,0.8,10,1.9,16.6,5.2c6.2,3.1,10.8,7.1,19.7,15.1c9.2,8.2,8.6,8.8,12.8,11.4c8.6,5.5,16.9,6.7,21.6,7.3
			c10.3,1.4,18.5-0.1,23.6-1.1C534.5,579.3,537.3,578.5,539.4,577.9z"/>
		<path class="st5" d="M522.6,829.4c1.7-1,3.2-2.3,4.5-4.1c1.1-1.5,1.7-2.9,2-4l0.4,0.1c-4.7,15.2-9.4,30.3-14.1,45.5
			c-3-0.1-5.9-0.2-8.6-0.3l0,0c0.6-4.8,1.4-10,2.4-15.3c1.3-6.8,2.9-13,4.6-18.7C516.7,831.8,519.8,831,522.6,829.4z"/>
		<path class="st6" d="M295.2,171.7c0.1-1.3,0.4-3.1,0.7-5.1c0.3-1.8,0.7-4.3,1.4-7.2c1.4-5.7,3.1-9.8,3.5-10.6
			c0.6-1.5,1.8-4.1,3.7-7.2c2.3-3.8,4.3-6.3,6.8-9.3c1.4-1.8,3.9-4.8,7.5-8.3c2.3-2.3,5.7-5.6,10.5-8.9c6.9-4.8,13.2-7.3,16.6-8.5
			c3.2-1.1,12.3-4,24.4-3.7c12.9,0.3,22.3,4.1,27.3,6.2c16.1,6.7,26.1,16.6,32.9,23.6c5.4,5.5,11.7,13,17.7,22.9
			c6.1-1.3,12.7-1.9,19.9-1.5c21.4,1.1,42.8,13.9,50.4,33.8c6.3,16.4,3,35-3.5,51.4c-8.4,20.9-22.1,37.7-39.1,52.4
			c-7.1-3.9-17.8-8.9-31.4-12c-16.5-3.9-29.6-3.3-43.8-2.7c-9.6,0.4-21.5,1-36.8,4.8c-9.2,2.3-20.1,5-32.9,12.2
			c-12.7,7.1-21.6,15.4-27.2,21.4c-33.3-9.1-62.7-34.3-77-65.8c-3.3-7.3-5.9-15-6.6-22.9c-1.7-18.7,8.9-37.4,23.5-48
			c8.4-6.1,16.6-8.4,20-9.1c4.5-1,14.5-2.7,26.2,0.5C291.9,170.5,293.6,171.1,295.2,171.7z"/>
		<path class="st4" d="M516.6,514.4c0.8,5,1.6,10.4,0.6,17c-1,6.2-2,12.7-7.2,17.3c-7,6.2-17.3,4.5-19.1,4.3c-0.7-0.1-2.2-0.3-4-0.9
			c-8.8-2.7-14-9.2-16.1-11.9c-3.6-4.6-5.1-8.9-7.9-16.6c-2.2-6.1-3.5-11.3-4.3-15c0-0.4-0.1-0.9-0.2-1.6c-0.5-4-1.6-14.1,3.2-23.6
			c1.6-3.2,3-6.1,6.3-8.3c6.3-4.2,14-2.2,18.2-1.1c9.9,2.6,15.8,8.9,18,11.4c4.8,5.3,7,10.6,8.6,14.4
			C515.2,506.1,516,511.1,516.6,514.4z M504.4,537.5c0.3-3.3,1.7-19.5-10.5-30.5c-1.6-1.4-13.6-11.9-23.8-7.4
			c-4.7,2.1-9.5,7.5-9.5,13.1c0,0.9,0.2,1.9,0.7,3.8c0.7,2.8,1.8,7.6,4.7,13.6c1.7,3.5,3.9,8,8.3,12.7c1.8,1.9,3.9,4.2,7.3,6.2
			c2.1,1.2,10.8,6.4,16.8,3.1C503.3,549.4,503.9,542.4,504.4,537.5z"/>
		<path class="st2" d="M504.7,726.3c3.3,3.1,9.6,3.5,9.5,5.3c-0.1,2.1-8.4,1.6-12.3,5c-3-1.5-5.3-3.1-6.3-2.1
			c-0.4,0.4-0.4,1-0.1,1.8c-0.3,3.3-0.7,7-1.5,11c-1.5-0.7-4.2-1.7-7.3-1.3c-6.9,0.8-9.4,7.3-13.1,7c-0.2,0-0.3,0-0.5-0.1
			c-4.9-1.2-3.5-10.5-9.8-13.5c-6.1-3-13.5,3.1-15.2,0.8c-0.1-0.1-0.1-0.2-0.2-0.4c-0.4-2.1,6-7,5.5-14.8l0,0
			c2.5-2.8,4.5-4.7,3.8-5.7c-0.6-0.9-2.5-0.1-5.1,0.8l-0.1-0.5c-1.9-3.6-4.8-6-4.8-7.6c0,0,0-0.1,0-0.2c0-0.2,0.1-0.4,0.2-0.5
			c1.6-2.5,9.8,3.6,17.7,0.4c7.7-3.1,8.6-12.2,12.7-11.8c4.2,0.4,3.6,9.8,9.9,12.6c7.1,3.2,15.9-4.8,18.2-2.2
			c0.1,0.2,0.2,0.3,0.3,0.5c-0.1,0.6-0.1,1.3-0.2,1.9c-1,3-4.5,7.4-2.8,11.4C503.5,725,504,725.7,504.7,726.3z M490.4,733.4
			c2.1-3.8-0.8-8.5-1.3-9.3c-2.7-4.4-8.3-7.3-13.7-6.2c-0.7,0.2-7,1.5-8.3,6.5c-1,4,1.9,7.4,2.6,8.3c3.4,4,8.4,4.3,10.1,4.4
			C481.8,737.1,488.1,737.4,490.4,733.4z"/>
		<path class="st2" d="M514.2,731.6c-0.2,1.9-0.5,3.7-0.7,5.6c-0.8,0.5-1.7,0.9-2.6,1.1c-3.3,0.8-6.4-0.5-9-1.8
			C505.7,733.2,514,733.6,514.2,731.6z"/>
		<path class="st5" d="M510.2,833.4c1.2-0.2,2.4-0.5,3.7-0.8c-1.7,5.7-3.3,11.9-4.6,18.7c-1.1,5.4-1.9,10.5-2.4,15.3l0,0
			c-6.9-0.3-12.9-0.5-18.2-0.8v-0.2c2-11.1,4.2-21.9,6.4-32.5C498.3,833.7,503.6,834.5,510.2,833.4z"/>
		<path class="st2" d="M480.3,828.5c-0.6-0.4-1.2-0.9-1.8-1.3c-4.4-3.8-5.9-6.1-5.9-6.1c2.9-7.7,5.6-16.1,8.2-25.2
			c3.1-11.1,5.3-21.6,7-31.2c0.6,2.5,8.7-0.1,13.7,4.7c4.5,4.3,1.6,10.4,5.4,12.6c-5.5,16.8-11,33.7-16.6,50.5
			C487.1,831.7,483.4,830.6,480.3,828.5z"/>
		<path class="st7" d="M506,712.8c-0.4,4.5-0.9,9-1.3,13.5c-0.6-0.6-1.1-1.3-1.5-2.1C501.5,720.2,505,715.8,506,712.8z"/>
		<path d="M493.8,507c12.3,11,10.8,27.2,10.5,30.5c-0.4,4.9-1,11.9-6,14.6c-6,3.3-14.7-1.9-16.8-3.1c-3.4-2-5.5-4.3-7.3-6.2
			c-4.4-4.7-6.5-9.1-8.3-12.7c-2.9-5.9-4-10.7-4.7-13.6c-0.5-1.9-0.7-2.9-0.7-3.8c0-5.6,4.8-11.1,9.5-13.1
			C480.2,495.1,492.2,505.6,493.8,507z M474.6,514.2c0-3.5-2.9-6.4-6.4-6.4s-6.4,2.9-6.4,6.4c0,3.5,2.9,6.4,6.4,6.4
			S474.6,517.7,474.6,514.2z"/>
		<path class="st2" d="M493.9,747.2c0.8-3.9,1.3-7.6,1.5-11c1.1,3.3,6.6,9.7,4.8,16c-1.5,5.3-7.5,7.9-10.5,9.9
			c1.2-3.2,2.3-6.8,3.3-10.7C493.4,750,493.7,748.6,493.9,747.2z"/>
		<path class="st2" d="M493.9,747.2c-0.3,1.4-0.6,2.8-0.9,4.2c-1,4-2.1,7.5-3.3,10.7c-1.3,0.8-2.1,1.6-1.9,2.4
			c-1.6,9.6-3.9,20.1-7,31.2c-2.5,9.1-5.3,17.5-8.2,25.2c-0.1-0.1-0.2-0.3-0.2-0.4c-1.2-1.9-1.7-3.3-2.6-3.3c-1.3,0-1.7,2.5-3.8,5.4
			c-0.2,0.2-0.3,0.4-0.5,0.6l-1.6-1c3.2-23.2,6.4-46.3,9.6-69.5c3.7,0.3,6.2-6.3,13.1-7C489.8,745.5,492.4,746.5,493.9,747.2z"/>
		<path class="st5" d="M490.4,832.4c1.7,0.3,3.3,0.6,4.6,0.8c-2.2,10.6-4.4,21.4-6.4,32.5v0.2c-9.8-0.4-17.4-0.8-23.6-1.2
			c1.6-14.6,3.4-28.9,5.3-42.8l2.2-1.2c0.1,0.1,0.2,0.3,0.2,0.4c0,0,1.5,2.3,5.9,6.1c0.6,0.5,1.1,0.9,1.8,1.3
			C483.4,830.6,487.1,831.7,490.4,832.4z"/>
		<path class="st5" d="M491.1,950.8c-1.1,4.8-2.3,9.7-3.5,14.5c-0.8,3.8-0.7,3.8-1.5,7.6c-2.6,12.4-4,18.7-6,21.9
			c-2.1,3.3-4.8,5.3-9,7.2c1.3-17,2.9-34.5,5-52.6v-0.2C478.9,949.5,484.2,950.1,491.1,950.8z"/>
		<path class="st3" d="M489.1,724.1c0.5,0.8,3.4,5.5,1.3,9.3c-2.3,4.1-8.6,3.7-10.6,3.6c-1.7-0.1-6.7-0.4-10.1-4.4
			c-0.7-0.8-3.6-4.3-2.6-8.3c1.3-5,7.5-6.3,8.3-6.5C480.9,716.8,486.5,719.7,489.1,724.1z"/>
		<path class="st6" d="M483.3,371c1.1,12.9,0.1,15.3-0.4,16.3c-1,2-2,2.7-9.7,7.9c-12.5,8.7-11.3,7.9-12.5,8.6
			c-2.5,1.5-15.8,9.9-30.9,14.9c-24.1,7.9-45.7,4.7-62.4,2.2c-11.4-1.7-19.9-4.2-34-8.3c-1.7-0.5-5.8-1.7-10.9-4.1
			c-2.9-1.4-4.8-2.5-8.5-4.7c-3.2-1.9-4.1-2.7-4.9-3.9c-1-1.5-1.4-3.2-1.9-6.5c-0.4-2.2-0.5-3.8-0.8-8c-0.3-4.1-0.5-6.1-0.5-6.8
			c-0.2-2.9-0.5-11.4-1-23.9c-0.4-10.6-0.8-24-1.3-39.4c5.6-6,14.5-14.3,27.2-21.4c12.8-7.1,23.7-9.9,32.9-12.2
			c15.3-3.8,27.2-4.4,36.8-4.8c14.1-0.6,27.2-1.2,43.8,2.7c13.6,3.2,24.3,8.1,31.4,12c2.1,16.2,3.2,29,3.8,37.9
			c0.1,2.2,0.3,4.2,0.4,6.2c0.6,9.7,0.9,17.5,2.3,26.5C482.8,365.3,482.9,367.2,483.3,371z"/>
		<path class="st8" d="M479.2,418.8c2.1,2.2,1.4,6.2,0.2,12c-0.8,4.1-2,7.1-3,9.6c-1.3,3.2-2.4,5.8-4.4,8.7
			c-1.3,1.9-4.5,6.5-10.6,10c-2.8,1.6-7.6,4.4-14.1,3.8c-2.4-0.2-6.9-0.5-10.4-4.1s-3.7-8.3-3.8-10.4c-0.2-5.3,1.9-9.2,3.1-11.5
			c2.6-4.7,5.9-7.3,8.2-9.1c3.3-2.5,6.1-3.8,10-5.5c3.3-1.5,7.5-3.3,13.2-4.2C473.4,417.2,477.1,416.6,479.2,418.8z"/>
		<path class="st5" d="M476.1,949.3v0.2c-2.1,18.1-3.7,35.7-5,52.6c-2.6,1.1-5.6,2.2-9.4,3.6c-2.5,0.9-4.9,1.6-7.3,2.3
			c0.7-19.5,1.8-39.5,3.2-60.1c6.4,0.4,12,0.9,16.6,1.3C474.5,949.1,475.1,949.2,476.1,949.3z"/>
		<path class="st2" d="M473.6,752.9c-3.2,23.2-6.4,46.3-9.6,69.5l1.6,1c-1.2,1.5-2.5,2.5-4.9,4.3c-1.4,1.1-5,3.8-10.8,6.5
			c-1,0.5-2.1,0.9-3.1,1.4c-0.6-11.3-0.6-24.1,0.5-38.2c1.1-14.3,3.2-27.1,5.6-38.3c0.1-0.2,0.1-0.5,0.1-0.7l0,0c0-2-2.9-5.4-5-9.8
			c-0.1-3-0.1-5.9-0.2-8.9l0,0c0,0.1,0.1,0.3,0.2,0.4c1.8,2.3,9.1-3.7,15.2-0.8c6.3,3,4.9,12.4,9.8,13.5
			C473.3,752.9,473.4,752.9,473.6,752.9z"/>
		<circle class="st4" cx="468.2" cy="514.2" r="6.4"/>
		<path class="st5" d="M472.5,820.6l-2.2,1.2c-1.9,14-3.6,28.3-5.3,42.8c-12.7-0.7-19.5-1.2-28.1-1.3c0-8.2-0.1-16.4-0.1-24.6
			c0.8-0.2,1.6-0.5,2.4-0.7c2.8-0.8,5.2-1.6,7.6-2.5c1.1-0.4,2.1-0.9,3.1-1.4c5.8-2.7,9.4-5.4,10.8-6.5c2.4-1.8,3.7-2.9,4.9-4.3
			c0.2-0.2,0.3-0.4,0.5-0.6c2.1-2.9,2.5-5.4,3.8-5.4C470.8,817.3,471.3,818.7,472.5,820.6z"/>
		<path class="st2" d="M453.5,724.9L453.5,724.9c-3.1,3.4-6.9,8.1-7.4,14c-0.3,3.6,0.7,6.9,2,9.7c2.1,4.4,5,7.8,5,9.8l0,0
			c0,0.2-0.1,0.5-0.1,0.7c0,0.1-0.1,0.2-0.2,0.3c-2.1,2.4-9.2-4.9-17.9-2.3c-4,1.2-9.3,4.8-12.5,10.1c-2,3.3-2.3,6-4.2,6.3
			c-2.1,0.4-3.7-2.7-7.1-6.2c-4.6-4.8-10.2-8-14.1-9.3c-9.4-3.1-17.2,1.7-18.1-0.4c-0.4-0.9,1.7-1.8,5-5.3c1-1.1,2-2.1,2.8-3.1l0,0
			c1.1-0.6,1.9-1.3,2.1-2.4c0-0.2,0.1-0.4,0.1-0.6c0.9-1.4,1.5-2.9,1.8-4.5c0.7-4.1-0.9-7.8-2.5-11.4c-1.2-2.7-2.5-4.5-3.2-5.9
			c0-0.1,0-0.1,0-0.2c-0.1-0.3-0.5-1.3,0-2.3c0.2-0.4,0.5-0.7,0.8-0.9c0.6-0.2,1.3-0.3,2.2-0.3c0.3,0,0.6,0,1,0c1,0,2.1,0,3.3-0.1
			c1.7-0.1,8.8-0.4,13.2-2.3c8.6-3.7,8.6-14.1,13.2-14c3,0.1,3.1,4.4,9.5,10.2c2.2,2,6.1,5.5,11.3,6.8c2.6,0.6,5,0.6,7.3,0.3
			c2-0.3,3.8-0.9,5.4-1.4c2.7-0.9,4.5-1.7,5.1-0.8C458,720.3,456,722.2,453.5,724.9z M434.7,736.5c0.7-3.4-1.6-6.3-2.1-7
			c-5-6.6-15.8-4.9-17.3-4.7c-3,0.5-8.8,1.5-11.9,6.5c-0.3,0.5-3.6,6-1,10.8c2.5,4.6,8.4,5.2,11.1,5.4c6.2,0.6,10.8-2.1,14.2-4.1
			C431.1,741.4,434,739.7,434.7,736.5z"/>
		<path class="st9" d="M456.6,588.8c0.9,3.7-3.3,7.8-8.3,12.7c-4.3,4.2-8.3,6.5-11.4,8.3c-5.3,3-9,5.2-14.5,5.9
			c-1.4,0.2-2.8,0.3-4.1,0.3c-3.1,0-6.1-0.7-9.9-1.5c-4.6-1-10.6-2.3-17-6.5c-4.8-3-12.7-8.2-12.1-13.7c0.7-6.2,11.9-9.6,19.4-11.9
			c8-2.4,14.6-2.7,19.1-2.8c2.8-0.1,9.7-0.2,18.8,1.4C447.3,582.9,455.5,584.4,456.6,588.8z"/>
		<path class="st5" d="M457.5,947.8c-1.4,20.5-2.5,40.6-3.2,60.1c-6.2,1.7-11.9,2.7-16.8,3.3c-0.1-21.3-0.2-42.6-0.3-64v-0.3
			C444.8,947.2,451.6,947.5,457.5,947.8z"/>
		<path class="st2" d="M453.5,724.9c0.4,7.8-5.9,12.7-5.5,14.8l0,0c0.1,3,0.1,5.9,0.2,8.9c-1.3-2.8-2.3-6.1-2-9.7
			C446.6,733,450.4,728.3,453.5,724.9z"/>
		<path class="st2" d="M453,759.1c0-0.2,0.1-0.5,0.1-0.7C453.1,758.7,453.1,758.9,453,759.1z"/>
		<path class="st2" d="M433.5,839.7c-4.4,1.1-9.5,2.2-15.6,2.6l0,0c0.1-22.9,0.2-45.9,0.3-68.8c1.9-0.3,2.2-3,4.2-6.3
			c3.1-5.3,8.5-8.9,12.5-10.1c8.7-2.6,15.7,4.7,17.9,2.3c0.1-0.1,0.2-0.2,0.2-0.3c-2.4,11.1-4.5,24-5.6,38.3
			c-1.1,14.1-1.1,26.9-0.5,38.2c-2.3,0.9-4.8,1.8-7.6,2.5c-0.8,0.2-1.6,0.5-2.4,0.7C435.8,839.1,434.7,839.4,433.5,839.7z"/>
		<path class="st2" d="M452,719.6l0.1,0.5c-1.5,0.5-3.3,1.1-5.4,1.4c0.1-3.2,0.3-6.3,0.4-9.5C447.2,713.6,450.1,716,452,719.6z"/>
		<path class="st10" d="M418.8,646.7c0.2,0,0.4,0,0.6,0s0.4,0,0.5,0c1.9,0.9,4.2,1.9,6.8,2.9c1.3,0.6,2.9,1.1,5.3,1.6c0,0,0,0,0.1,0
			s0.3,0.1,0.5,0.1l0,0c1.5,0.4,5.4,1.7,7.5,1.5c0.8-0.1,1.7,0,2.5,0.1c1,0,1.8,0,2,0.5c0,0.1,0.1,0.3,0.1,0.8s0,0.8,0,0.8
			c0,0.6-3.5,34.9-24.4,36.4c-20.8,1.5-28.8-31.5-29-32.7c-0.2-1.1,0.3-1.5,0.3-1.5l0,0c0.5-0.1,1-0.2,1.5-0.2c0.1,0,0.2,0,0.2,0
			c0.8-0.1,1.4-0.3,1.8-0.4h0.1c0.1,0,0.1,0,0.2-0.1c3.8-0.9,7.4-2.1,10.5-3.4c0,0,0,0,0.1,0c4.1-1.4,6.2-2.7,7.8-3.8
			c1.6-0.9,2.8-1.7,3.7-2.2C417.9,646.8,418.3,646.7,418.8,646.7z"/>
		<path class="st5" d="M437.3,947.3c0.1,21.3,0.2,42.6,0.3,64c-7.4,0.9-13,0.9-15.5,0.8c-0.4,0-0.7,0-1.1,0
			c-1.2-21.2-2.6-42.8-4.3-64.7c3.6-0.2,7-0.2,10.5-0.3c3.5,0,6.9,0,10.1,0V947.3L437.3,947.3z"/>
		<path class="st5" d="M436.8,838.8c0,8.2,0.1,16.4,0.1,24.6c-5.8-0.1-12.4-0.1-22.1,0c-1.4,0-3.3,0.1-5.6,0.1
			c-0.7-7-1.5-14-2.2-20.9c2.7,0,5.6-0.2,8.8-0.3c0.7,0,1.5-0.1,2.2-0.1c6.1-0.4,11.2-1.5,15.6-2.6
			C434.7,839.4,435.8,839.1,436.8,838.8z"/>
		<path class="st3" d="M432.6,729.5c0.5,0.6,2.7,3.6,2.1,7c-0.6,3.3-3.6,5-7,7s-8,4.7-14.2,4.1c-2.7-0.2-8.6-0.8-11.1-5.4
			c-2.6-4.8,0.8-10.4,1-10.8c3.1-5,8.8-5.9,11.9-6.5C416.8,724.6,427.6,722.9,432.6,729.5z"/>
		<path class="st2" d="M418.2,773.5c-0.1,22.9-0.2,45.9-0.3,68.8l0,0c-0.7,0-1.4,0.1-2.2,0.1c-3.2,0.1-6.2,0.3-8.8,0.3
			c-7.8,0.1-13.4-0.7-18.2-4.5c-2-1.5-3.7-3.1-5.1-4.6c0.8-12.1,1-26.1-0.1-41.4c-0.9-12.7-2.6-24.3-4.6-34.6
			c0.9,2.1,8.7-2.7,18.1,0.4c4,1.3,9.5,4.5,14.1,9.3C414.5,770.7,416.1,773.8,418.2,773.5z"/>
		<path class="st5" d="M416.7,947.3c1.7,21.9,3.1,43.5,4.3,64.7c-5.7-0.2-11-0.8-15.9-1.6l0,0c-2.1-19.9-4.7-40.6-7.8-61.9
			C404.7,948,410.9,947.6,416.7,947.3z"/>
		<path class="st5" d="M407,842.7c0.8,6.9,1.5,13.9,2.2,20.9c-6.2,0.1-15.5,0.4-26.8,0.9v-0.2c-2.9-14.2-6-27.9-9.1-41.3l-1.6-0.1
			c0.5-1.2,1.1-2.1,2-2.2c1.6-0.1,2.7,2.9,4.3,5.8c0,0,1.8,3.2,5.7,7.2c1.4,1.5,3.1,3,5.1,4.6C393.6,842,399.2,842.8,407,842.7z"/>
		<path class="st5" d="M405.1,1010.4L405.1,1010.4c-6.9-1.3-13.1-3.1-18.4-5.2c-1.4-16.4-3.9-35-8-55.2c7.1-0.6,13.2-1.1,18.6-1.5
			C400.4,969.8,403,990.5,405.1,1010.4z"/>
		<path class="st2" d="M388.2,730.2c1.6,3.6,3.2,7.3,2.5,11.4c-0.3,1.6-0.9,3.1-1.8,4.5c0.1-3.8-6.7-5.9-6.3-11.6
			c0.2-3.4,2.9-7.7,2.3-10.3C385.7,725.7,387,727.5,388.2,730.2z"/>
		<path class="st2" d="M382.7,734.5c-0.4,5.7,6.4,7.8,6.3,11.6c-0.6,1-1.4,2-2.2,3l0,0c-2.3,1.2-6.1,2-10.5,5.6
			c-6.1,5.2-6.4,10.3-9.6,10.2c-3.8-0.1-4.6-5.8-9.7-8c-3.1-1.3-6,1.4-8.6-0.2c-0.7-0.8-1.6-1.6-2.4-2.5c0,0,0,0,0-0.1
			c-1.3-1.5-2.3-2.9-3-3.8c0-0.1-0.1-0.2-0.1-0.2c1.8-4.3,1.8-7.7,1.5-9.9c-0.5-3.5-1.9-5.4-3.2-11.5c0-0.1-0.1-0.3-0.1-0.4
			c-0.9-4.5-0.5-5.1-0.3-5.4c2.2-3.1,9.8,2.5,15.1-0.9c5.5-3.5,4.1-12.5,7.4-12.9c2.9-0.4,3.9,7.1,9.7,9c6.2,2.1,11.8-4.1,13.9-2.1
			c0.1,0.3,0.3,0.5,0.4,0.8c0.3,1.2-0.2,3-1.1,3.9c-0.1,0.1-0.2,0.1-0.2,0.2c-0.5,0.2-0.9,0.4-1.1,0.8c-0.4,0.7-0.2,1.5,0.3,2.5
			C385.6,726.8,382.9,731.2,382.7,734.5z M375.1,741.9c0.5-0.7,2.4-3.1,1.8-5.9c-0.5-2.5-2.4-3.9-3.9-4.9c-3.9-2.8-8.3-2.6-9.5-2.6
			c-2.4,0.1-7.1,0.4-9.6,4.1c-0.1,0.2-2.2,3.5-1,7.2c1.3,4.1,5.5,5.5,6.7,5.9c2.8,1,5.2,0.6,7,0.3
			C368.9,745.6,372.7,745,375.1,741.9z"/>
		<path class="st11" d="M389,720.6c-0.4,0-0.7,0-1,0c-0.9,0-1.7,0.1-2.2,0.3c0.1-0.1,0.2-0.1,0.2-0.2c0.9-0.8,1.4-2.7,1.1-3.9
			C387.7,718.1,388.3,719.4,389,720.6z"/>
		<path class="st2" d="M386.8,749.1c-0.9,1-1.8,2.1-2.8,3.1c-3.3,3.5-5.4,4.5-5,5.3c2,10.3,3.7,21.9,4.6,34.6
			c1.1,15.3,0.9,29.3,0.1,41.4c-3.9-4-5.7-7.2-5.7-7.2c-1.6-2.9-2.8-5.8-4.3-5.8c-2.3-18.6-4.6-37.1-7-55.7c3.3,0.1,3.6-5,9.6-10.2
			C380.6,751.1,384.5,750.3,386.8,749.1z"/>
		<path class="st5" d="M378.6,950.1c4.1,20.2,6.6,38.7,8,55.2c-6.3-2.5-12.3-4.9-16.1-8.6l-9-44.3l-0.1-0.9c5-0.4,10.4-0.9,16.1-1.4
			C378,950.1,378.3,950.1,378.6,950.1z"/>
		<path class="st5" d="M346.2,838.4c5.8-0.6,15.8-2.4,21.3-7.8c1.1-1.1,2-2.3,2.7-3.8c0.6-1.2,1-2.7,1.5-3.9l1.6,0.1
			c3.1,13.4,6.2,27.2,9.1,41.3v0.2c-8.7,0.4-18.6,1-29.3,1.8c-4-9.8-8.2-19-12.4-27.5c0.9,0,1.7-0.1,2.2-0.2
			C343.7,838.6,344.9,838.5,346.2,838.4z"/>
		<path class="st3" d="M376.9,735.9c0.5,2.9-1.3,5.3-1.8,5.9c-2.4,3.1-6.1,3.7-8.5,4.1c-1.8,0.3-4.2,0.7-7-0.3
			c-1.2-0.4-5.4-1.8-6.7-5.9c-1.2-3.8,0.9-7,1-7.2c2.5-3.7,7.2-4,9.6-4.1c1.2-0.1,5.6-0.2,9.5,2.6
			C374.4,732.1,376.4,733.5,376.9,735.9z"/>
		<path class="st2" d="M366.7,765c2.3,18.6,4.6,37.1,7,55.7c-0.9,0-1.5,1-2,2.2s-1,2.7-1.5,3.9c-0.7,1.4-1.6,2.7-2.7,3.8l0,0
			c-3.3-10.4-6.5-21.6-9.4-33.4c-3-12.4-5.5-24.2-7.5-35.4c0.5-1.8-0.5-3.3-2.2-5c2.6,1.7,5.5-1.1,8.6,0.2
			C362.1,759.2,362.9,764.9,366.7,765z"/>
		<path class="st5" d="M361.6,952.4l9,44.3c-1.6-1.5-2.8-3.3-3.5-5.3c-0.7-2.1-1.6-6.6-3-13.5c-0.6-3-1-5.4-1.2-6.2
			c0-0.1,0-0.2,0-0.2c-0.3-1.9-1.6-7.2-4.9-19.6c1.2-0.1,2.4-0.2,3.6-0.3V952.4z"/>
		<path class="st2" d="M367.5,830.5L367.5,830.5c-5.4,5.5-15.5,7.2-21.3,7.9c-6.6-17.9-13.3-35.8-19.9-53.7
			c5.5-2.4,3.1-9.3,10.3-15.5c6.5-5.5,12.8-3.7,13.9-7.5c2,11.2,4.4,23,7.5,35.4C361,809,364.1,820.1,367.5,830.5z"/>
		<path d="M366.5,517.5l-0.6,0.8c-0.1-0.2-0.2-0.3-0.3-0.4c-0.6-0.2-1.4,1.6-3.7,5.2v0.1c0.5-0.9,0.8-2,0.8-3.2
			c0-3.5-2.8-6.3-6.3-6.3s-6.3,2.8-6.3,6.3s2.8,6.3,6.3,6.3c1.5,0,2.9-0.5,4-1.4l-12,14.3c0,0,0,0.1-0.1,0.1
			c-0.6,0.7-1.2,1.4-1.8,2.2c0,0,0,0.1-0.1,0.1l-7.6,9c-1.7,1.3-2.6,1.3-4.1,3.3c-1.5,2.1-1.6,3.5-3.8,5.1c-1.1,0.8-2,1.1-1.9,1.4
			c0,0.2,0.6,0.3,1.3,0.3l-1.1,1.3c-2.2-4.2-6.2-13.8-4.6-25.9c0.6-4.4,2.1-16.1,11.7-23.8c2.5-2,11.5-9.2,20.5-5.6
			C363.4,509.1,365.9,515.7,366.5,517.5z"/>
		<path d="M365.9,518.3c0.8,2.1-1,11.9-5.4,20.8c-0.7,1.5-7.3,14.3-16.9,18.5c-1.9,0.8-4.8,1.7-7.7,2.3c-1.7,0.3-3.9,0.6-5.3,0.7
			l8.4-10c0.5-0.4,1.1-0.8,1.7-1.5c2-1.9,3-3.5,3.9-4.8c0.7-1,1.3-1.9,2-2.7c0,0,0-0.1,0.1-0.1l1.8-2.2c0,0,0,0,0.1-0.1
			c2.8-3,5.4-5.2,9.6-10.6c1.4-1.9,2.6-3.5,3.5-4.9c0-0.1,0.1-0.2,0.1-0.2c0.1-0.1,0.1-0.2,0.2-0.3L365.9,518.3z"/>
		<path d="M365.9,518.3l-4,4.8c2.3-3.6,3.1-5.4,3.7-5.2C365.7,517.9,365.8,518.1,365.9,518.3z"/>
		<path class="st8" d="M365.4,455.4c0.1,1.9,0.2,5.2-1.9,8.5s-5.1,4.6-6.2,5c-3.6,1.5-6.8,1.1-8.9,0.8c-4.7-0.7-7.9-2.8-10.8-4.6
			c-3.8-2.4-6.2-5-7.5-6.4c-1.2-1.2-4-4.3-6.6-8.9c-1.6-2.8-2.8-4.9-3.5-7.9s-1.6-7.2,0.6-9.7c1.7-1.9,4.5-2,9.3-2.1
			c2.9-0.1,5.1,0.3,7.2,0.6c2.1,0.3,5.6,0.9,9.9,2.5c3.4,1.3,6.6,2.5,9.9,5.4c2.5,2.2,3.8,4.3,4.6,5.6
			C362.9,446.6,365.2,450.3,365.4,455.4z"/>
		<path class="st4" d="M362.7,519.9c0,1.2-0.3,2.2-0.8,3.2l-1.4,1.7l0,0c-1.1,0.9-2.5,1.4-4,1.4c-3.5,0-6.3-2.8-6.3-6.3
			s2.8-6.3,6.3-6.3C359.8,513.6,362.7,516.5,362.7,519.9z"/>
		<path class="st4" d="M360.4,524.8l1.4-1.7c0,0.1-0.1,0.2-0.1,0.3s-0.1,0.1-0.1,0.2C361.2,524,360.8,524.4,360.4,524.8z"/>
		<path class="st2" d="M348.4,756.7c1.6,1.8,2.7,3.2,2.2,5c-1.1,3.8-7.5,2-13.9,7.5c-7.2,6.2-4.8,13.1-10.3,15.5
			c-1.2,0.5-2.7,0.3-5.6-0.1c-8.3-1-10.1-3.8-15.3-4.4c-8.3-1-13.3,5.3-15.2,3.2c-2.2-2.3,4.7-8.3,3.1-15.9
			c-1.7-8.5-12.3-10.8-11.4-15c0.9-4.1,11.6-1.4,17.3-8.4c5.3-6.4,1.2-14.2,5.7-17.5c2.4-1.8,7.5-2.4,19.2,4.4
			c0.2-0.1,0.4-0.2,0.5-0.3c9.8-5.3,13.7-5.1,15.5-3.6c0.5,0.4,0.8,1,0.9,1.6c0.8,3.3-2.6,9.2-0.3,16.9c0.5,1.7,1.2,3.2,2,4.5l0,0
			c0,0.1,0.1,0.1,0.1,0.2c0.9,1.5,2,2.8,3,3.8c0,0,0,0,0,0.1c1.1,1.3,1.7,2,2.2,2.4C348.2,756.6,348.3,756.7,348.4,756.7z
			 M323.7,758.7c0.4-0.7,3.8-6.2,1.3-10.3c-2.6-4.4-10.4-4.7-15.2-1.8c-5.6,3.4-8.2,11.7-5.2,15.7c1.8,2.4,5,2.7,6.5,2.8
			C316,765.6,321.1,762.9,323.7,758.7z"/>
		<path d="M348.4,539.2l-1.8,2.2C347.1,540.5,347.8,539.8,348.4,539.2z"/>
		<path class="st2" d="M326.3,784.7c6.6,17.9,13.3,35.8,19.9,53.7c-1.4,0.2-2.5,0.3-3.2,0.3c-0.5,0-1.3,0.1-2.2,0.2
			c-4.8,0.2-14.5,0.1-23.8-4.9c-1.4-4.4-3.2-9.3-5.4-14.5c-1.4-3.4-3.1-6.8-4.9-10.4c-0.2-0.4-0.4-0.8-0.6-1.2
			c-3.5-6.7-7.3-12.6-10.9-17.7c-1.7-2.4-3.4-4.6-5-6.6c2,2.1,6.9-4.2,15.2-3.2c5.2,0.6,7,3.4,15.3,4.4
			C323.6,785,325.1,785.2,326.3,784.7z"/>
		<path class="st2" d="M344.2,740.2c0.3,2.2,0.3,5.5-1.5,9.9c-0.8-1.3-1.5-2.8-2-4.5c-2.3-7.7,1.1-13.5,0.3-16.9l0,0
			C342.3,734.8,343.8,736.8,344.2,740.2z"/>
		<path class="st5" d="M317,833.9c9.3,5,19,5.2,23.8,4.9c4.1,8.5,8.3,17.6,12.4,27.5c-7.2,0.5-14.8,1.2-22.5,2
			c-1.8-5-4.1-10.3-6.8-16c-3.3-6.7-6.7-12.7-10.1-17.8l1-1.9C315.5,833.1,316.2,833.5,317,833.9z"/>
		<path d="M338.9,550.4l-8.4,10c-0.8,0-1.3-0.1-1.3-0.3c-0.1-0.3,0.8-0.6,1.9-1.4c2.1-1.6,2.2-3.1,3.8-5.1
			C336.2,551.8,337.1,551.7,338.9,550.4z"/>
		<path class="st5" d="M307.9,830.9c-0.7-1.3-1.3-2.7-2-4c-1-2-2-4-3-6c1.8,2.7,5.1,6.9,9.6,10.2c0.7,0.5,1.5,1,2.2,1.5l-1,1.9
			c3.3,5.2,6.8,11.1,10.1,17.8c2.8,5.6,5,11,6.8,16c-1.3,0.1-2.6,0.3-4,0.4c-5.2-10.5-10.4-21.1-15.7-31.6
			C310,835,308.9,833,307.9,830.9z"/>
		<path class="st3" d="M325,748.3c2.5,4.1-0.9,9.7-1.3,10.3c-2.6,4.3-7.7,6.9-12.6,6.5c-1.4-0.1-4.7-0.5-6.5-2.8
			c-3-4.1-0.4-12.4,5.2-15.7C314.6,743.6,322.4,743.9,325,748.3z"/>
		<path class="st1" d="M324.2,729.9l0.5,0.8c-0.2,0.1-0.3,0.2-0.5,0.3c-11.8-6.8-16.8-6.2-19.2-4.4c-4.5,3.4-0.4,11.2-5.7,17.5
			c-5.7,6.9-16.4,4.3-17.3,8.4c-0.9,4.1,9.6,6.5,11.4,15c1.6,7.6-5.3,13.5-3.1,15.9c1.6,2,3.3,4.2,5,6.6l-0.6,0.4
			c-5.7-1.8-9.7-3.8-10.6-4.3c-3.3-2-5.7-4.2-7.6-6.2c-7.4-7.7-12.6-16.9-16.3-23.8c-4.4-8.3-3.1-7.1-11.2-23.6
			c-3.4-6.8-5.5-11.2-8.8-17c-5-9-5.6-8.8-8.3-14.4c-4.1-8.2-6-15-7.5-20.1c-0.7-2.3-2.5-8.8-3.6-17.4c-1-8.2,1-14.6,1.8-17.9
			c0.9-3.7,2.1-8.8,5.4-14.9c0.3-0.6,5.2-9.4,14.3-16.5c2.6-2,4.5-3.1,7-3.7c0.7-0.2,2.8-0.6,8.9,0.2c3.6,0.5,5.9,0.7,8.7,1.5
			c2.5,0.7,9.9,2.9,16.6,9.3c2.2,2.1,3.5,3.8,5.7,7c4.9,7,8.9,15.6,11,20.2c0.8,1.9,1.3,3.1,1.4,3.3c1.7,4.3,3.3,8.6,5.9,17
			c2.1,6.7,5.4,17.4,12,43c0.2,0.9,0.9,3.5,1.8,7.1C322.4,723.6,323.4,727.3,324.2,729.9z M295.5,659.8c0.6-1.1,0.5-2.2,0.1-3.9
			c-0.4-2.2-1.1-3.8-1.4-4.3c-0.4-0.9-1-2.2-2.2-3.6c-0.5-0.6-1.3-1.6-2.7-2.5c-0.8-0.5-2.1-1.5-4.1-1.8c-1.1-0.2-3.6-0.7-5.4,0.8
			c-0.9,0.8-1.2,1.8-1.5,2.7c-0.6,2.2-0.2,4,0.1,5.6c0.2,0.8,0.8,3.4,2.8,6.1c1.1,1.5,2,2.8,3.8,3.5c1.1,0.5,2.1,0.6,2.7,0.6
			c2,0.2,3.4-0.3,3.7-0.4c0.7-0.3,1.6-0.7,2.5-1.4C294.7,660.8,295.2,660.4,295.5,659.8z M289.9,683.8c0.6-1.4,0.6-3.1-0.4-6.4
			c-1.6-5.2-4-8.8-4.9-10.1c-4.4-6.5-6.6-9.8-10.1-11.8c-1.7-1-7.4-4.3-13.6-2.2c-6.2,2-8.9,8-9.9,10.4c-1.6,3.8-1.7,6.8-1.8,12.3
			c-0.1,8.1-0.1,13,3.4,16.8c0.4,0.5,3.9,4.1,8.5,4.1c2.1,0,4-0.8,7-1.9c1.1-0.5,1.1-0.5,4.9-2.3c3.4-1.6,5.2-2.4,6.3-2.8
			c3.6-1.2,4.2-0.7,6.4-1.9C286.9,687.2,289,686,289.9,683.8z M276.4,642.8c0.8-4.9-1.1-9.2-1.7-10.3c-0.8-1.6-2.7-5.3-6.9-7.5
			c-3.1-1.7-8.7-3.3-11-0.8c-1.1,1.1-1.1,2.7-1.3,5c-0.1,2.4,0.3,4.2,0.8,6c0.9,3.4,2.2,5.8,2.5,6.3c1.5,2.8,2.6,4.6,4.8,6
			c0.5,0.3,3.3,1.9,6.9,1.4c1-0.2,2.9-0.5,4.3-2C275.1,646.4,275.9,645.3,276.4,642.8z M255.1,651c0.6-2,0.2-3.8-1-7
			c-2-5.5-3-8.2-5.3-10.9c-2.1-2.4-3.4-4-5.6-4.3c-3.8-0.4-7.1,3.6-8.5,6.3c-2.3,4.4-1.4,8.9-0.6,12.6c0.9,4.4,2.2,10.1,6.5,11.6
			c3.7,1.3,7.7-1,8.5-1.5c2.4-1.4,3.9-3.3,4.5-4.2C254.1,652.9,254.7,652.1,255.1,651z M244.8,677.7c0.4-1.5,0.4-2.6,0.3-4.3
			c0-0.5-0.1-2.3-0.8-4.6c-0.4-1.4-0.7-2.3-1.4-3.5c-0.6-0.9-1.4-2.2-3-2.9c-2.8-1.2-5.8,0.8-6.1,1c-3.7,2.5-3.8,7.4-3.8,8.4
			c0,0.8,0,3.9,2.1,6.8c0.7,1.1,2,2.9,4.4,3.7c0.6,0.2,2.9,0.9,5.1-0.2C243.8,681,244.5,678.7,244.8,677.7z"/>
		<path class="st5" d="M317,833.9c-0.7-0.4-1.5-0.8-2.2-1.3s-1.5-1-2.2-1.5c-4.5-3.3-7.8-7.5-9.6-10.2l0,0c-1.1-1.7-1.6-2.8-1.4-3
			s1.9,1.8,4.9,2.3c2,0.3,3.8-0.2,5.2-0.8l0,0C313.8,824.6,315.6,829.5,317,833.9z"/>
		<path class="st12" d="M291.3,834.8c-1-1-2.1-2.4-2.7-4.3c-1.6-4.8,0.9-9.1,2.2-11.5c4.2-7.4,11.7-10,14.3-10.8l0.9-0.5
			c0.2,0.4,0.4,0.8,0.6,1.2c1.9,3.6,3.5,7.1,4.9,10.4l0,0c-1.4,0.6-3.2,1.1-5.2,0.8c-3-0.5-4.6-2.5-4.9-2.3c-0.2,0.2,0.3,1.3,1.4,3
			l0,0c1,2,2,4,3,6l-2.4,1.2c-0.6,1.8-1.2,4-1.4,6.7c-0.1,1.4-0.1,2.6,0,3.7c-2.2,0-4.1-0.1-6.1-0.7c-0.5-0.2-1.1-0.4-1.6-0.7
			C293.9,836.8,292.6,836,291.3,834.8z"/>
		<path class="st12" d="M307.9,830.9c1,2.1,2,4.1,3.1,6.2l-1.4,0.7c-0.7,0.1-1.5,0.3-2.5,0.4c-0.1-1.2-0.2-2.9,0.2-4.9
			C307.4,832.4,307.6,831.6,307.9,830.9z"/>
		<path class="st12" d="M305.9,826.9c0.7,1.3,1.3,2.7,2,4c-0.3,0.7-0.5,1.5-0.7,2.4c-0.4,2-0.3,3.7-0.2,4.9
			c-0.8,0.1-1.8,0.2-2.8,0.2c-0.7,0-1.4,0-2.1,0.1c-0.1-1.1-0.1-2.4,0-3.7c0.2-2.7,0.8-4.9,1.4-6.7L305.9,826.9z"/>
		<path class="st0" d="M303.6,990.9c0.1,0.2,0.1,0.3,0.2,0.5c-16.6,0.1-36.7,1.5-59.2,6c-26.8,5.4-47.9,19.5-51,14.9
			c-1-1.5,2.2-6.5,8.5-16.5c4.1-6.5,9.1-13.7,14.4-22.5c6.5-10.6,7-12.4,6.4-14.5c-1.4-5.3-8.5-8-18.3-11.6
			c-4.9-1.8-8.9-2.9-15.2-4.4c-21.6-5.1-26.3-4.9-26.6-6.7c-0.7-5.5,40.1-15.1,43.9-16c11.5-2.7,21.1-4.3,27.5-5.3
			c0.9,3.5,2.2,7.6,4,12.5c8.9,24.5,13.3,36.7,21.7,40.8c0.4,0.2,0.8,0.4,1.2,0.5l0,0C275.3,976.1,289.5,983.5,303.6,990.9z"/>
		<path class="st0" d="M291.1,962.4c4.1,9.5,8.3,19,12.5,28.5c-14.1-7.4-28.3-14.8-42.4-22.2c5.6,2.2,10.4,0.9,17.9-1.9
			c0.5-0.2,1-0.4,1.6-0.6c0.5-0.2,1.1-0.4,1.7-0.6c0.6-0.2,1.2-0.4,1.8-0.7c0.6-0.2,1.2-0.5,1.9-0.7c0.3-0.1,0.6-0.2,1-0.4
			C288.3,963.4,289.7,962.9,291.1,962.4z"/>
		<path class="st3" d="M295.6,655.9c0.3,1.7,0.5,2.8-0.1,3.9c-0.4,0.6-0.8,1-1.4,1.5c-0.9,0.7-1.8,1.2-2.5,1.4
			c-0.3,0.1-1.8,0.6-3.7,0.4c-0.5,0-1.6-0.1-2.7-0.6c-1.8-0.8-2.7-2.1-3.8-3.5c-2-2.7-2.6-5.3-2.8-6.1c-0.4-1.6-0.8-3.5-0.1-5.6
			c0.3-0.9,0.6-1.9,1.5-2.7c1.7-1.5,4.3-1,5.4-0.8c1.9,0.3,3.3,1.3,4.1,1.8c1.4,1,2.2,2,2.7,2.5c1.2,1.4,1.8,2.7,2.2,3.6
			C294.5,652.1,295.2,653.7,295.6,655.9z"/>
		<path class="st3" d="M289.5,677.3c1,3.3,1,5,0.4,6.4c-0.9,2.3-3,3.5-4.1,4c-2.2,1.2-2.8,0.7-6.4,1.9c-1.2,0.4-2.9,1.2-6.3,2.8
			c-3.8,1.8-3.8,1.8-4.9,2.3c-3,1.2-4.9,1.9-7,1.9c-4.6,0-8.1-3.6-8.5-4.1c-3.5-3.8-3.5-8.7-3.4-16.8c0.1-5.5,0.1-8.5,1.8-12.3
			c1-2.3,3.6-8.3,9.9-10.4c6.2-2,11.9,1.2,13.6,2.2c3.4,2,5.6,5.3,10.1,11.8C285.6,668.5,288,672.2,289.5,677.3z"/>
		<path class="st3" d="M274.6,632.5c0.6,1.2,2.5,5.4,1.7,10.3c-0.4,2.5-1.3,3.6-1.7,4c-1.4,1.5-3.3,1.8-4.3,2
			c-3.6,0.6-6.4-1.1-6.9-1.4c-2.3-1.4-3.3-3.2-4.8-6c-0.3-0.5-1.6-2.9-2.5-6.3c-0.4-1.8-0.9-3.6-0.8-6c0.1-2.3,0.2-3.9,1.3-5
			c2.4-2.5,8-0.8,11,0.8C271.9,627.2,273.8,630.8,274.6,632.5z"/>
		<path class="st3" d="M254.1,644.1c1.2,3.2,1.6,5,1,7c-0.4,1.1-0.9,1.8-1.5,2.7c-0.6,0.8-2.1,2.8-4.5,4.2c-0.8,0.5-4.8,2.8-8.5,1.5
			c-4.3-1.6-5.5-7.2-6.5-11.6c-0.8-3.7-1.8-8.1,0.6-12.6c1.4-2.7,4.8-6.7,8.5-6.3c2.2,0.2,3.5,1.8,5.6,4.3
			C251.1,635.9,252.1,638.6,254.1,644.1z"/>
		<path class="st3" d="M245.1,673.4c0.1,1.6,0.1,2.8-0.3,4.3c-0.3,1-1,3.3-3.2,4.5s-4.5,0.4-5.1,0.2c-2.4-0.8-3.7-2.6-4.4-3.7
			c-2-2.9-2.1-6-2.1-6.8c0-1,0.1-5.9,3.8-8.4c0.4-0.3,3.3-2.2,6.1-1c1.5,0.7,2.4,2,3,2.9c0.8,1.1,1,2.1,1.4,3.5
			C244.9,671,245.1,672.8,245.1,673.4z"/>
	</g>
	<g>
		<line class="st13" x1="421" y1="1012" x2="421" y2="1012.1"/>
		<line class="st13" x1="437.5" y1="1011.3" x2="437.5" y2="1011.3"/>
		<line class="st14" x1="370.5" y1="996.6" x2="370.8" y2="998"/>
		<path class="st15" d="M333.4,196.4c-2.6-1.4-6.5-3.5-11.1-6.6c-8.7-6-11-9.4-18.3-13.7c-1.7-1-4.7-2.8-8.8-4.4
			c-1.6-0.6-3.3-1.2-5.2-1.7c-11.7-3.2-21.7-1.5-26.2-0.5c-3.4,0.8-11.6,3-20,9.1c-14.6,10.7-25.3,29.3-23.5,48
			c0.7,8,3.3,15.6,6.6,22.9c14.3,31.5,43.6,56.6,77,65.8c5.6-6,14.5-14.3,27.2-21.4c12.8-7.1,23.7-9.9,32.9-12.2
			c15.3-3.8,27.2-4.4,36.8-4.8c14.1-0.6,27.2-1.2,43.8,2.7c13.6,3.2,24.3,8.1,31.4,12c17.1-14.7,30.8-31.5,39.1-52.4
			c6.5-16.3,9.8-35,3.5-51.4c-7.7-20-29.1-32.7-50.5-33.8c-7.1-0.4-13.8,0.3-19.9,1.5c-22.4,4.6-37,17.6-39.2,19.9"/>
		<path class="st16" d="M448.1,155.6c-5.9-9.9-12.3-17.4-17.7-22.9c-6.8-7-16.8-16.9-32.9-23.6c-5-2.1-14.4-5.9-27.3-6.2
			c-12.1-0.3-21.2,2.6-24.4,3.7c-3.4,1.2-9.8,3.7-16.6,8.5c-4.8,3.3-8.1,6.7-10.5,8.9c-3.6,3.6-6.1,6.6-7.5,8.3
			c-2.5,3-4.5,5.5-6.8,9.3c-1.9,3.1-3,5.7-3.7,7.2c-0.4,0.9-2.1,4.9-3.5,10.6c-0.7,2.9-1.1,5.4-1.4,7.2c-0.3,2.1-0.5,3.8-0.7,5.1
			c0,0.1,0,0.1,0,0.1"/>
		<path class="st17" d="M303.8,315.3c0.5,15.3,0.9,28.8,1.3,39.4c0.4,12.4,0.8,20.9,1,23.9c0,0.8,0.2,2.8,0.5,6.8
			c0.3,4.3,0.5,5.8,0.8,8c0.6,3.3,0.9,5,1.9,6.5c0.8,1.2,1.7,1.9,4.9,3.9c3.7,2.2,5.5,3.4,8.5,4.7c5.1,2.3,9.2,3.6,10.9,4.1
			c14.1,4.2,22.6,6.6,34,8.3c16.6,2.5,38.3,5.7,62.4-2.2c15.1-4.9,28.4-13.3,30.9-14.9c1.2-0.7-0.1,0,12.5-8.6
			c7.6-5.3,8.7-6,9.7-7.9c0.5-1,1.5-3.4,0.4-16.3c-0.3-3.8-0.5-5.7-1-8.7c-1.4-9-1.7-16.8-2.3-26.5c-0.1-2-0.2-4-0.4-6.2
			c-0.6-8.9-1.7-21.7-3.8-37.9"/>
		<path class="st18" d="M305,354.7c-5-5.2-14.3-13.2-27.3-15.3c-19.5-3.1-35.6,9-59.2,26.7c-16.4,12.3-26.2,23.4-34.8,33.3
			c-10.6,12-15.9,18.2-18,25.7c-5.6,20,5.6,39.5,11.2,49.4c4.6,8.1,9.6,13.5,19.4,24.4c17.6,19.4,31.8,29.8,41.8,36
			c5.6,3.5,15.2,9,27.5,10.1c1.8,0.2,3.4,0.2,4.9,0.1c3.6-0.1,6.4-0.8,8.6-1.7c1.3-0.5,6.9-2.8,11.6-8.5c3.3-4,4.8-8.1,6.6-15.1
			c3.3-13.1,4.4-23.6,4.6-26.3c1.1-11.8,1.3-20.6,1.5-31.8c0.2-8.7,0.3-16.9,0-27.9c-0.3-8.3-0.6-19.4-2.3-33.3
			c-1.3-10.6-3.5-24.3-7.7-40.3"/>
		<path class="st18" d="M480,335.8c3-2.3,7.5-5.3,13.5-7.5c7-2.6,12.6-3,19.7-3.5c10-0.7,17.8,0.2,22.8,0.8c8.1,1,14.1,2.5,18.2,3.5
			c4.7,1.2,11.7,3,20.5,6.6c6.7,2.8,11.6,5.4,15.1,7.4c9.5,5.2,16,10,18.2,11.6c7,5.2,10.5,7.9,12.8,11.2c3.5,5.3,4.5,11.2,4.3,22.8
			c-0.3,14-2.2,25.4-4.3,36c-3.1,15.7-5,25.4-9.7,38.7c-0.9,2.5-5.8,16.5-13.9,29.8c-1.5,2.4-4.2,6.7-8.5,11.6
			c-3.8,4.3-6,6.7-9.7,8.9c-7.1,4.1-14.1,4-16.6,3.9c-2.1-0.1-4-0.3-5.7-0.7c-3.4-0.7-5.7-1.7-6.3-2c-1.3-0.6-5.4-2.6-13.3-11.4
			c-2.9-3.2-5.3-6.2-11.9-15.4c-6.1-8.4-9.2-12.6-10.5-14.7c-6.5-10.2-10-18.9-12.8-25.9c-3.8-9.5-5.9-17-7.7-23.6
			c-2.1-7.6-3.8-13.6-5-22.1c-0.4-2.7-1.5-10.9-1.5-21.7c0-7.2,0.5-16.5,2.3-27.1"/>
		<path class="st19" d="M270.4,545.1c1.6,9.8,4.8,23.5,11.7,38.8c1.9,4.3,3.9,8.1,5.9,11.7c5.2,9.3,10.5,16.5,15,22.4
			c4.2,5.5,8.2,10.3,12,14.6c6.3,7,12.2,12.5,17.4,17.4c13.2,12.4,24.2,22.7,41.8,32.5c22.5,12.5,37.8,14.1,42.6,14.5
			c7.7,0.5,15.5-0.3,15.5-0.3c9.9-1,17.2-3.3,19.6-4.1c2.5-0.8,11.4-3.9,21.7-10.8c1.6-1.1,7.9-5.4,15.7-13.2
			c11.9-11.8,18.7-23,24.3-32.3c3.1-5.2,5.7-10,7.9-14.4c3.2-6.4,5.5-11.9,7.3-16.1c3.2-7.6,5.4-13.5,9.5-25.3
			c0.3-0.9,0.6-1.8,1-2.7c3.7-10.5,6.3-18.4,7.6-22.6c4.7-15.1,6.5-22.5,7-24.5c1.3-5.7,2.2-10.5,2.8-14"/>
		<path class="st20" d="M479.4,430.8c-0.8,4.1-2,7.1-3,9.6c-1.3,3.2-2.4,5.8-4.4,8.7c-1.3,1.9-4.5,6.5-10.6,10
			c-2.8,1.6-7.6,4.4-14.1,3.8c-2.4-0.2-6.9-0.5-10.4-4.1s-3.7-8.3-3.8-10.4c-0.2-5.3,1.9-9.2,3.1-11.5c2.6-4.7,5.9-7.3,8.2-9.1
			c3.3-2.5,6.1-3.8,10-5.5c3.3-1.5,7.5-3.3,13.2-4.2c5.8-0.9,9.5-1.5,11.5,0.6C481.3,421,480.5,425,479.4,430.8z"/>
		<path class="st20" d="M363.5,463.9c-2.1,3.3-5.1,4.6-6.2,5c-3.6,1.5-6.8,1.1-8.9,0.8c-4.7-0.7-7.9-2.8-10.8-4.6
			c-3.8-2.4-6.2-5-7.5-6.4c-1.2-1.2-4-4.3-6.6-8.9c-1.6-2.8-2.8-4.9-3.5-7.9s-1.6-7.2,0.6-9.7c1.7-1.9,4.5-2,9.3-2.1
			c2.9-0.1,5.1,0.3,7.2,0.6c2.1,0.3,5.6,0.9,9.9,2.5c3.4,1.3,6.6,2.5,9.9,5.4c2.5,2.2,3.8,4.3,4.6,5.6c1.6,2.5,3.9,6.1,4.1,11.2
			C365.5,457.2,365.6,460.6,363.5,463.9z"/>
		<path class="st19" d="M329.4,561.8c2,0.2,5,0.3,8.5-0.5c8.2-1.9,13.2-7.3,16.3-10.6c5.3-5.7,7.6-11.4,8.8-14.2
			c0.2-0.4,3.3-8.3,3.6-17.7c0-0.5,0-0.9,0-1.3c0-0.6,0-1,0-1.2c0-1.8-0.1-7-1.7-12.5c-1.1-3.7-2.7-8.9-7.2-13.7
			c-2.2-2.3-5.6-6-10.8-6.9c-1.4-0.2-6.1-0.8-14.5,4.6c-14.7,9.6-20.3,24.4-20.9,26.1c-1.6,4.5-5.8,16.4-1.5,29.7
			c1.3,4.2,3.3,10.3,9.3,14.5c0.7,0.5,3.6,2.4,7.9,3.3C327.5,561.5,328.3,561.7,329.4,561.8"/>
		<path class="st19" d="M517.2,531.5c-1,6.2-2,12.7-7.2,17.3c-7,6.2-17.3,4.5-19.1,4.3c-0.7-0.1-2.2-0.3-4-0.9
			c-8.8-2.7-14-9.2-16.1-11.9c-3.6-4.6-5.1-8.9-7.9-16.6c-2.2-6.1-3.5-11.3-4.3-15c0-0.4-0.1-0.9-0.2-1.6c-0.5-4-1.6-14.1,3.2-23.6
			c1.6-3.2,3-6.1,6.3-8.3c6.3-4.2,14-2.2,18.2-1.1c9.9,2.6,15.8,8.9,18,11.4c4.8,5.3,7,10.6,8.6,14.4c2.5,6.1,3.3,11.2,3.9,14.5
			C517.3,519.4,518.2,524.8,517.2,531.5z"/>
		<path class="st21" d="M288.1,595.6c4.8,1.7,11.9,3.8,20.8,4.7c9.9,1.1,18.9,2,28.3-2.3c5.4-2.5,8.9-6.2,15.9-13.5
			c9.6-10.1,8.9-12.5,17-20.5c8.3-8.1,16.1-12.6,19.4-14.3c4.1-2.2,11.1-5.9,21.1-7.7c2.6-0.5,12.9-2.3,26.1,0.2
			c4.3,0.8,10,1.9,16.6,5.2c6.2,3.1,10.8,7.1,19.7,15.1c9.2,8.2,8.6,8.8,12.8,11.4c8.6,5.5,16.9,6.7,21.6,7.3
			c10.3,1.4,18.5-0.1,23.6-1.1c3.5-0.7,6.3-1.5,8.4-2.1"/>
		<path class="st19" d="M418.5,615.9c-3.1,0-6.1-0.7-9.9-1.5c-4.6-1-10.6-2.3-17-6.5c-4.8-3-12.7-8.2-12.1-13.7
			c0.7-6.2,11.9-9.6,19.4-11.9c8-2.4,14.6-2.7,19.1-2.8c2.8-0.1,9.7-0.2,18.8,1.4c10.6,1.9,18.8,3.4,19.9,7.8
			c0.9,3.7-3.3,7.8-8.3,12.7c-4.3,4.2-8.3,6.5-11.4,8.3c-5.3,3-9,5.2-14.5,5.9C421.1,615.9,419.8,616,418.5,615.9z"/>
		<path class="st20" d="M432.6,651.2c1.5,0.4,5.4,1.7,7.5,1.5c0.8-0.1,1.7,0,2.5,0.1c1,0,1.8,0,2,0.5c0,0.1,0.1,0.3,0.1,0.8
			s0,0.8,0,0.8c0,0.6-3.5,34.9-24.4,36.4c-20.8,1.5-28.8-31.5-29-32.7c-0.2-1.1,0.3-1.5,0.3-1.5"/>
		<path class="st20" d="M432.1,651.1c0.1,0,0.3,0.1,0.5,0.1"/>
		<path class="st20" d="M406.1,653c4.1-1.4,6.2-2.7,7.8-3.8c1.5-1,2.3-1.9,3.7-2.2c0.4-0.1,0.8-0.2,1.3-0.2c0.2,0,0.4,0,0.6,0
			s0.4,0,0.5,0c2.9,0.1,3.9,1.5,6.8,2.9c1.3,0.6,2.9,1.1,5.3,1.6"/>
		<path class="st20" d="M395.5,656.4c0.8-0.2,3.4-1,10.5-3.4"/>
		<path class="st20" d="M391.7,657.1c0.3-0.3,0.7-0.2,1.5-0.2c0.1,0,0.2,0,0.2,0c0.8-0.1,1.4-0.3,1.8-0.4"/>
		<path class="st22" d="M419.1,649.6c0,11,0.1,22,0.1,32.9"/>
		<path class="st19" d="M418.5,615.9c0.1,10.3,0.2,20.5,0.3,30.8l0,0"/>
		<path class="st18" d="M345.4,627.6c0.8,3.8,3,11.7,9.8,18.6c6.4,6.5,13.5,8.7,17,9.8c6.7,2,13.4,2.1,19.5,1.2l0,0
			c0.5-0.1,1-0.2,1.5-0.2c0.7-0.1,1.4-0.3,2-0.4h0.1c0.1,0,0.1,0,0.2-0.1c3.8-0.9,7.4-2.1,10.5-3.4c0,0,0,0,0.1,0
			c3-1.3,5.7-2.6,7.8-3.8c1.6-0.9,2.8-1.7,3.7-2.2c0.4-0.3,0.7-0.5,1-0.6"/>
		<path class="st18" d="M419.1,646.2c0.3,0.2,0.6,0.3,0.9,0.5c1.9,0.9,4.2,1.9,6.8,2.9c1.6,0.6,3.4,1.1,5.3,1.6c0,0,0,0,0.1,0
			s0.3,0.1,0.5,0.1l0,0c4.4,1,9.5,1.7,15,1.4c7.5-0.4,13.1-2.5,24.3-6.7c8.8-3.3,12.4-5.7,15.2-9c3.2-3.7,4.7-7.6,5.4-10.3"/>
		<path class="st17" d="M294.5,790.4c-5.7-1.8-9.7-3.8-10.6-4.3c-3.3-2-5.7-4.2-7.6-6.2c-7.4-7.7-12.6-16.9-16.3-23.8
			c-4.4-8.3-3.1-7.1-11.2-23.6c-3.4-6.8-5.5-11.2-8.8-17c-5-9-5.6-8.8-8.3-14.4c-4.1-8.2-6-15-7.5-20.1c-0.7-2.3-2.5-8.8-3.6-17.4
			c-1-8.2,1-14.6,1.8-17.9c0.9-3.7,2.1-8.8,5.4-14.9c0.3-0.6,5.2-9.4,14.3-16.5c2.6-2,4.5-3.1,7-3.7c0.7-0.2,2.8-0.6,8.9,0.2
			c3.6,0.5,5.9,0.7,8.7,1.5c2.5,0.7,9.9,2.9,16.6,9.3c2.2,2.1,3.5,3.8,5.7,7c4.9,7,8.9,15.6,11,20.2c0.8,1.9,1.3,3.1,1.4,3.3
			c1.7,4.3,3.3,8.6,5.9,17c2.1,6.7,5.4,17.4,12,43c0.2,0.9,0.9,3.5,1.8,7.1c1.1,4.4,2.2,8.1,2.9,10.7"/>
		<path class="st20" d="M244.8,677.7c0.4-1.5,0.4-2.6,0.3-4.3c0-0.5-0.1-2.3-0.8-4.6c-0.4-1.4-0.7-2.3-1.4-3.5
			c-0.6-0.9-1.4-2.2-3-2.9c-2.8-1.2-5.8,0.8-6.1,1c-3.7,2.5-3.8,7.4-3.8,8.4c0,0.8,0,3.9,2.1,6.8c0.7,1.1,2,2.9,4.4,3.7
			c0.6,0.2,2.9,0.9,5.1-0.2C243.8,681,244.5,678.7,244.8,677.7z"/>
		<path class="st20" d="M252.7,692.7c-3.5-3.8-3.5-8.7-3.4-16.8c0.1-5.5,0.1-8.5,1.8-12.3c1-2.3,3.6-8.3,9.9-10.4
			c6.2-2,11.9,1.2,13.6,2.2c3.4,2,5.6,5.3,10.1,11.8c0.9,1.3,3.3,5,4.9,10.1c1,3.3,1,5,0.4,6.4c-0.9,2.3-3,3.5-4.1,4
			c-2.2,1.2-2.8,0.7-6.4,1.9c-1.2,0.4-2.9,1.2-6.3,2.8c-3.8,1.8-3.8,1.8-4.9,2.3c-3,1.2-4.9,1.9-7,1.9
			C256.6,696.7,253.2,693.1,252.7,692.7z"/>
		<path class="st20" d="M295.5,659.8c-0.4,0.6-0.8,1-1.4,1.5c-0.9,0.7-1.8,1.2-2.5,1.4c-0.3,0.1-1.8,0.6-3.7,0.4
			c-0.5,0-1.6-0.1-2.7-0.6c-1.8-0.8-2.7-2.1-3.8-3.5c-2-2.7-2.6-5.3-2.8-6.1c-0.4-1.6-0.8-3.5-0.1-5.6c0.3-0.9,0.6-1.9,1.5-2.7
			c1.7-1.5,4.3-1,5.4-0.8c1.9,0.3,3.3,1.3,4.1,1.8c1.4,1,2.2,2,2.7,2.5c1.2,1.4,1.8,2.7,2.2,3.6c0.2,0.5,0.9,2.1,1.4,4.3
			C296,657.6,296.1,658.7,295.5,659.8z"/>
		<path class="st20" d="M255.1,651c0.6-2,0.2-3.8-1-7c-2-5.5-3-8.2-5.3-10.9c-2.1-2.4-3.4-4-5.6-4.3c-3.8-0.4-7.1,3.6-8.5,6.3
			c-2.3,4.4-1.4,8.9-0.6,12.6c0.9,4.4,2.2,10.1,6.5,11.6c3.7,1.3,7.7-1,8.5-1.5c2.4-1.4,3.9-3.3,4.5-4.2
			C254.1,652.9,254.7,652.1,255.1,651z"/>
		<path class="st20" d="M276.4,642.8c-0.4,2.5-1.3,3.6-1.7,4c-1.4,1.5-3.3,1.8-4.3,2c-3.6,0.6-6.4-1.1-6.9-1.4
			c-2.3-1.4-3.3-3.2-4.8-6c-0.3-0.5-1.6-2.9-2.5-6.3c-0.4-1.8-0.9-3.6-0.8-6c0.1-2.3,0.2-3.9,1.3-5c2.4-2.5,8-0.8,11,0.8
			c4.2,2.3,6.1,5.9,6.9,7.5C275.2,633.6,277.2,637.8,276.4,642.8z"/>
		<path class="st16" d="M300.1,648.8c1.8-2.9,4.3-6.4,7.7-9.9c2.5-2.6,5-4.7,7.3-6.3"/>
		<path class="st16" d="M521.5,622c4,3.5,9.6,8.9,15.6,16.2c9.4,11.5,16.8,24.3,28.4,56.5c4,11.2,8.8,24.5,13.5,41.1
			c5,17.4,7.9,30.9,8.9,35.8c2.8,13.3,5.7,30,7.8,49.5c0,0.3,0.1,0.7,0.1,1"/>
		<path class="st16" d="M594.9,820.5c0.3,0.2,0.6,0.3,0.9,0.5c4.1,2.4,7.5,4.6,10.2,6.3c6,4,7.7,5.4,9.1,7.3c1.4,2,2.3,4,3.9,8.1
			c1.2,3.1,2.7,6.8,3.7,11.8c0.8,3.7,1.2,6,1,9.3s-1.1,5.7-1.9,8.3c-1.2,3.7-1.9,5.5-3.3,7.3c-0.6,0.8-1.4,1.6-3.3,2.7
			c-1.2,0.7-3,1.6-5.4,2.7c-1.3,0.6-2.4,1.1-3.5,1.6c-0.3,0.1-0.5,0.2-0.8,0.3"/>
		<path class="st16" d="M542.2,868.5c-2.4-8.6-3.7-15.3-3.8-18.3c-0.1-1.3,0-2.5,0-2.5c0-2.3,0.2-4.1,0.4-5.8c1-8.8,3.6-12.7,3-19.2
			c-0.7-6.9-0.8-10.2-2.6-12.5c-0.7-0.8-1.3-1.5-1.8-1.9l-0.1-0.1"/>
		<path class="st16" d="M499.4,711.3c-2.5-4.9-4.9-9.7-7.4-14.6"/>
		<path class="st23" d="M615.1,882.3c-0.6-7.7-1.8-14-2.9-18.6c-1.4-6.1-2.5-10.6-5.4-16c-2.7-5-5.8-8.7-8-11"/>
		<path class="st23" d="M602.4,883.7c-0.8-4.1-1.6-7.6-2.5-10.5c-0.9-3.3-3.3-11.2-8.1-20.7c-2.4-4.9-4.8-8.8-6.8-11.8"/>
		<path class="st23" d="M576.8,874.6c-3.7-11.8-8.3-21.7-12.8-29.8"/>
		<path class="st24" d="M302.9,820.9c1.8,2.7,5.1,6.9,9.6,10.2c0.7,0.5,1.5,1,2.2,1.5s1.5,0.9,2.2,1.3c9.3,5,19,5.2,23.8,4.9
			c0.9,0,1.7-0.1,2.2-0.2c0.8-0.1,1.9-0.2,3.2-0.3c5.8-0.6,15.8-2.4,21.3-7.8c1.1-1.1,2-2.3,2.7-3.8c0.6-1.2,1-2.7,1.5-3.9
			s1.1-2.1,2-2.2c1.6-0.1,2.7,2.9,4.3,5.8c0,0,1.8,3.2,5.7,7.2c1.4,1.5,3.1,3,5.1,4.6c4.8,3.8,10.4,4.5,18.2,4.5
			c2.7,0,5.6-0.2,8.8-0.3c0.7,0,1.5-0.1,2.2-0.1c6.1-0.4,11.2-1.5,15.6-2.6c1.1-0.3,2.2-0.6,3.3-0.9c0.8-0.2,1.6-0.5,2.4-0.7
			c2.8-0.8,5.2-1.6,7.6-2.5c1.1-0.4,2.1-0.9,3.1-1.4c5.8-2.7,9.4-5.4,10.8-6.5c2.4-1.8,3.7-2.9,4.9-4.3c0.2-0.2,0.3-0.4,0.5-0.6
			c2.1-2.9,2.5-5.4,3.8-5.4c0.9,0,1.4,1.4,2.6,3.3c0.1,0.1,0.2,0.3,0.2,0.4c0,0,1.5,2.3,5.9,6.1c0.6,0.5,1.1,0.9,1.8,1.3
			c3.1,2.1,6.7,3.2,10,3.9c1.7,0.3,3.3,0.6,4.6,0.8c3.3,0.5,8.6,1.3,15.1,0.2c1.2-0.2,2.4-0.5,3.7-0.8c2.8-0.8,5.9-1.5,8.7-3.2
			c1.7-1,3.2-2.3,4.5-4.1c1.1-1.5,1.7-2.9,2-4"/>
		<path class="st24" d="M311.6,819.4c-1.4,0.6-3.2,1.1-5.2,0.8c-3-0.5-4.6-2.5-4.9-2.3c-0.2,0.2,0.3,1.3,1.4,3"/>
		<path class="st24" d="M302.9,820.9L302.9,820.9c1,2,2,4,3,6c0.7,1.3,1.3,2.7,2,4c1,2.1,2,4.1,3.1,6.2
			c5.2,10.5,10.5,21.1,15.7,31.6"/>
		<path class="st25" d="M357.9,951.8c3.3,12.4,4.6,17.7,4.9,19.6c0,0,0,0.1,0,0.2c0.1,0.8,0.6,3.1,1.2,6.2c1.4,6.9,2.3,11.4,3,13.5
			c0.7,2,1.9,3.8,3.5,5.3c3.8,3.7,9.8,6.1,16.1,8.6c5.4,2.1,11.5,3.9,18.4,5.2c4.9,0.9,10.2,1.5,15.9,1.6c0.4,0,0.7,0,1.1,0
			c2.5,0,8,0.1,15.5-0.8c4.9-0.6,10.6-1.6,16.8-3.3c2.4-0.7,4.8-1.4,7.3-2.3c3.8-1.3,6.9-2.4,9.4-3.6c4.2-1.9,6.9-3.8,9-7.2
			c2.1-3.3,3.4-9.5,6-21.9c0.8-3.8,0.8-3.9,1.5-7.6c1.2-4.8,2.3-9.7,3.5-14.5l0,0"/>
		<path class="st24" d="M515.4,867c4.7-15.2,9.4-30.3,14.1-45.5c0-0.1,0-0.1,0.1-0.2c0.2-0.6,0.3-1.1,0.5-1.7"/>
		<path class="st19" d="M386.8,749.1c0.8-1,1.6-2,2.2-3c0.9-1.4,1.5-2.9,1.8-4.5c0.7-4.1-0.9-7.8-2.5-11.4c-1.2-2.7-2.5-4.5-3.2-5.9
			c-0.5-1-0.7-1.8-0.3-2.5c0.2-0.4,0.6-0.7,1.1-0.8c0.6-0.2,1.3-0.3,2.2-0.3c0.3,0,0.6,0,1,0c1,0,2.1,0,3.3-0.1
			c1.7-0.1,8.8-0.4,13.2-2.3c8.6-3.7,8.6-14.1,13.2-14c3,0.1,3.1,4.4,9.5,10.2c2.2,2,6.1,5.5,11.3,6.8c2.6,0.6,5,0.6,7.3,0.3
			c2-0.3,3.8-0.9,5.4-1.4c2.7-0.9,4.5-1.7,5.1-0.8c0.7,1-1.3,2.9-3.8,5.7"/>
		<path class="st19" d="M453.1,758.4c0,0.3,0,0.5-0.1,0.7c0,0.1-0.1,0.2-0.2,0.3c-2.1,2.4-9.2-4.9-17.9-2.3
			c-4,1.2-9.3,4.8-12.5,10.1c-2,3.3-2.3,6-4.2,6.3c-2.1,0.4-3.7-2.7-7.1-6.2c-4.6-4.8-10.2-8-14.1-9.3c-9.4-3.1-17.2,1.7-18.1-0.4
			c-0.4-0.9,1.7-1.8,5-5.3c1-1.1,2-2.1,2.8-3.1"/>
		<path class="st19" d="M453.5,724.9c-3.1,3.4-6.9,8-7.4,14c-0.3,3.6,0.7,6.9,2,9.7c2.1,4.4,5,7.8,5,9.8"/>
		<path class="st19" d="M345.9,754.2c0.9,0.9,1.7,1.8,2.4,2.5c1.6,1.8,2.7,3.2,2.2,5c-1.1,3.8-7.5,2-13.9,7.5
			c-7.2,6.2-4.8,13.1-10.3,15.5c-1.2,0.5-2.7,0.3-5.6-0.1c-8.3-1-10.1-3.8-15.3-4.4c-8.3-1-13.3,5.3-15.2,3.2
			c-2.2-2.3,4.7-8.3,3.1-15.9c-1.7-8.5-12.3-10.8-11.4-15c0.9-4.1,11.6-1.4,17.3-8.4c5.3-6.4,1.2-14.2,5.7-17.5
			c2.4-1.8,7.5-2.4,19.2,4.4c0.2-0.1,0.4-0.2,0.5-0.3c9.8-5.3,13.7-5.1,15.5-3.6c0.5,0.4,0.8,1,0.9,1.6c0.8,3.3-2.6,9.2-0.3,16.9
			c0.5,1.7,1.2,3.2,2,4.5c0,0.1,0.1,0.2,0.1,0.2C343.8,751.8,344.9,753.1,345.9,754.2"/>
		<path class="st19" d="M559.4,739.1c-1.5,4.1-9.5,11.2-7.5,18c0.3,0.9,0.7,1.8,1.2,2.5c3.4,4.8,11.2,6.4,10.7,9.4
			c-0.1,0.6-0.5,1-1.1,1.3"/>
		<path class="st19" d="M562.6,770.3c-2.2,1.2-7.2,1.2-11,5.4c-3.9,4.3-2,7.8-4.9,9.5c-5.3,3.1-12.1-8.1-23.7-7.5
			c-8.3,0.4-12.1,6.5-16,4.1c-3.8-2.3-1-8.4-5.4-12.6c-5-4.8-13-2.2-13.7-4.7c-0.2-0.8,0.6-1.6,1.9-2.4c3.1-2.1,9-4.7,10.5-9.9
			c1.8-6.2-3.7-12.6-4.8-16c-0.3-0.8-0.3-1.4,0.1-1.8c1-1,3.3,0.6,6.3,2.1c2.6,1.3,5.7,2.5,9,1.8c1-0.2,1.9-0.6,2.6-1.1
			c5.4-3.4,6.8-12.3,11-12c4.1,0.2,3.6,9,10.1,12.9c9,5.4,22.3-4.5,24.8-1c0.4,0.5,0.4,1.2,0.1,2"/>
		<path class="st20" d="M386.8,749.1c-2.3,1.2-6.1,2-10.5,5.6c-6.1,5.2-6.4,10.3-9.6,10.2c-3.8-0.1-4.6-5.8-9.7-8
			c-3.1-1.3-6,1.4-8.6-0.2c-0.1,0-0.1-0.1-0.2-0.2c-0.5-0.3-1.1-1-2.2-2.4c0,0,0,0,0-0.1c-1.3-1.5-2.3-2.9-3-3.8
			c0-0.1-0.1-0.1-0.1-0.2l0,0c1.8-4.3,1.8-7.7,1.5-9.9c-0.5-3.5-1.9-5.4-3.2-11.5c0-0.1-0.1-0.3-0.1-0.4c-0.9-4.5-0.5-5.1-0.3-5.4
			c2.2-3.1,9.8,2.5,15.1-0.9c5.5-3.5,4.1-12.5,7.4-12.9c2.9-0.4,3.9,7.1,9.7,9c6.2,2.1,11.8-4.1,13.9-2.1c0.2,0.2,0.3,0.5,0.4,0.8
			c0.3,1.2-0.2,3-1.1,3.9c-0.1,0.1-0.2,0.1-0.2,0.2c-0.3,0.2-0.6,0.4-0.8,0.9c-0.5,0.9-0.1,2,0,2.3c0,0.1,0,0.1,0,0.2
			c0.6,2.6-2.1,6.9-2.3,10.3c-0.4,5.7,6.4,7.8,6.3,11.6c0,0.2,0,0.4-0.1,0.6C388.7,747.9,387.9,748.6,386.8,749.1"/>
		<path class="st19" d="M386.8,749.1L386.8,749.1"/>
		<path class="st20" d="M493.9,747.2L493.9,747.2c-1.6-0.7-4.2-1.7-7.3-1.3c-6.9,0.8-9.4,7.3-13.1,7c-0.2,0-0.3,0-0.5-0.1
			c-4.9-1.2-3.5-10.5-9.8-13.5c-6.1-3-13.5,3.1-15.2,0.8c-0.1-0.1-0.1-0.2-0.2-0.4c-0.4-2.1,6-7,5.5-14.8l0,0c0-0.2,0-0.3,0-0.4"/>
		<path class="st20" d="M447.1,711.8c0-0.2,0.1-0.4,0.2-0.5c1.6-2.5,9.8,3.6,17.7,0.4c7.7-3.1,8.6-12.2,12.7-11.8
			c4.2,0.4,3.6,9.8,9.9,12.6c7.1,3.2,15.9-4.8,18.2-2.2c0.1,0.2,0.2,0.3,0.3,0.5c0.2,0.5,0.1,1.2-0.2,1.9c-1,3-4.5,7.4-2.8,11.4
			c0.3,0.8,0.9,1.5,1.5,2.1c3.3,3.1,9.6,3.5,9.5,5.3c-0.1,2.1-8.4,1.6-12.3,5c-0.3,0.2-0.5,0.5-0.7,0.7"/>
		<path class="st20" d="M452,719.6c-1.9-3.6-4.8-6-4.8-7.6"/>
		<path class="st20" d="M464,822.4c3.2-23.2,6.4-46.3,9.6-69.5"/>
		<path class="st20" d="M447.9,739.7c0.1,3,0.1,5.9,0.2,8.9"/>
		<path class="st20" d="M514.2,731.6c-0.2,1.9-0.5,3.7-0.7,5.6"/>
		<path class="st20" d="M506.2,710.9L506.2,710.9c-0.1,0.7-0.1,1.3-0.2,1.9c-0.4,4.5-0.9,9-1.3,13.5"/>
		<path class="st20" d="M447.1,711.8c0,0,0,0.1,0,0.2c-0.1,3.2-0.2,6.3-0.4,9.5"/>
		<path class="st20" d="M386.7,716.1c0.1,0.3,0.3,0.5,0.4,0.8c0.6,1.2,1.2,2.5,1.9,3.7"/>
		<path class="st20" d="M366.7,765c2.3,18.6,4.6,37.1,7,55.7"/>
		<path class="st20" d="M323.7,758.7c0.4-0.7,3.8-6.2,1.3-10.3c-2.6-4.4-10.4-4.7-15.2-1.8c-5.6,3.4-8.2,11.7-5.2,15.7
			c1.8,2.4,5,2.7,6.5,2.8C316,765.6,321.1,762.9,323.7,758.7z"/>
		<path class="st20" d="M434.7,736.5c0.7-3.4-1.6-6.3-2.1-7c-5-6.6-15.8-4.9-17.3-4.7c-3,0.5-8.8,1.5-11.9,6.5
			c-0.3,0.5-3.6,6-1,10.8c2.5,4.6,8.4,5.2,11.1,5.4c6.2,0.6,10.8-2.1,14.2-4.1C431.1,741.4,434,739.7,434.7,736.5z"/>
		<path class="st20" d="M375.1,741.9c0.5-0.7,2.4-3.1,1.8-5.9c-0.5-2.5-2.4-3.9-3.9-4.9c-3.9-2.8-8.3-2.6-9.5-2.6
			c-2.4,0.1-7.1,0.4-9.6,4.1c-0.1,0.2-2.2,3.5-1,7.2c1.3,4.1,5.5,5.5,6.7,5.9c2.8,1,5.2,0.6,7,0.3
			C368.9,745.6,372.7,745,375.1,741.9z"/>
		<path class="st20" d="M490.4,733.4c2.1-3.8-0.8-8.5-1.3-9.3c-2.7-4.4-8.3-7.3-13.7-6.2c-0.7,0.2-7,1.5-8.3,6.5
			c-1,4,1.9,7.4,2.6,8.3c3.4,4,8.4,4.3,10.1,4.4C481.8,737.1,488.1,737.4,490.4,733.4z"/>
		<path class="st20" d="M538.9,762c0.1-0.2,2.7-4.5,1-9c-2.4-6.6-11.3-7.6-12.7-7.8c-1.9-0.2-7.5-0.8-12,3.1
			c-0.7,0.6-5.3,4.9-4.2,10.1c1,4.6,5.7,6.7,7.5,7.5C525,768.8,535,768.3,538.9,762z"/>
		<path class="st17" d="M261.2,968.7c-0.4-0.2-0.8-0.3-1.2-0.5c-8.4-4-12.8-16.3-21.7-40.8c-1.8-4.9-3.1-9-4-12.5
			c-2.9-10.9-2.1-16,0.4-20c1.8-2.9,4.4-5.1,12.4-8.8c17.2-7.9,32.6-10.3,45.9-12.4c20.5-3.1,30.8-4.7,33.6-5c1.3-0.1,2.6-0.3,4-0.4
			c7.7-0.8,15.3-1.5,22.5-2c10.6-0.8,20.5-1.4,29.3-1.8c11.3-0.5,20.6-0.8,26.8-0.9c2.3,0,4.2-0.1,5.6-0.1c9.7-0.2,16.3-0.2,22.1,0
			c8.5,0.2,15.4,0.7,28.1,1.3c6.2,0.3,13.8,0.7,23.6,1.2c5.4,0.2,11.4,0.5,18.2,0.8c2.7,0.1,5.6,0.2,8.6,0.3
			c5.3,0.2,10.9,0.4,17.1,0.6c0,0,3.5,0.1,9.7,0.9c8.9,1.1,23.4,3.6,41.9,8.9c11.3,3.3,17.8,6,22.1,9.3c2,1.5,3.5,3.2,4.8,5.2
			c2.6,4,3.2,7.7,2,24.7c-0.2,3.2-0.5,6.8-0.9,10.9c-3,33.1-4.7,39.3-9.8,41.8c-2.4,1.2-4.2,0.8-18.6-2.1
			c-16.2-3.3-24.2-4.9-25.3-5.2c-21.5-5.5-49.5-9.2-67.2-11.2c-6.9-0.8-12.2-1.3-15-1.5c-1-0.1-1.6-0.2-1.9-0.2
			c-4.7-0.4-10.2-0.9-16.6-1.3c-6-0.4-12.7-0.7-20.3-0.8c-3.2,0-6.6,0-10.1,0s-6.9,0.1-10.5,0.3c-5.8,0.3-12,0.7-19.5,1.2
			c-5.4,0.4-11.5,0.9-18.6,1.5c-0.3,0-0.6,0-1,0.1c-5.8,0.5-11.1,0.9-16.1,1.4c-1.2,0.1-2.4,0.2-3.6,0.3c-28.4,2.4-43.9,4-52,6.1
			c-5.7,1.5-10.6,3-14.8,4.5c-1.5,0.5-2.9,1-4.2,1.5c-0.3,0.1-0.6,0.2-1,0.4c-0.6,0.2-1.3,0.5-1.9,0.7s-1.2,0.5-1.8,0.7
			s-1.1,0.4-1.7,0.6s-1.1,0.4-1.6,0.6C271.6,969.6,266.8,971,261.2,968.7"/>
		<path class="st19" d="M326.3,784.7c6.6,17.9,13.3,35.8,19.9,53.7l0,0"/>
		<path class="st19" d="M350.5,761.7c2,11.2,4.4,23,7.5,35.4c2.9,11.8,6.1,23,9.4,33.4"/>
		<path class="st19" d="M290.2,783.4c1.6,2,3.3,4.2,5,6.6c3.6,5.1,7.4,11,10.9,17.7c0.2,0.4,0.4,0.8,0.6,1.2
			c1.9,3.6,3.5,7.1,4.9,10.4c2.2,5.2,4,10.1,5.4,14.5v0.1"/>
		<path class="st19" d="M418.2,773.5c-0.1,22.9-0.2,45.9-0.3,68.8"/>
		<path class="st19" d="M453.1,758.4L453.1,758.4c0,0.3-0.1,0.5-0.1,0.7c-2.4,11.1-4.5,24-5.6,38.3c-1.1,14.1-1.1,26.9-0.5,38.2"/>
		<path class="st19" d="M378.9,757.6c2,10.3,3.7,21.9,4.6,34.6c1.1,15.3,0.9,29.3,0.1,41.4"/>
		<path class="st19" d="M506.9,781.9c-5.5,16.8-11,33.7-16.6,50.5"/>
		<path class="st19" d="M487.8,764.6c-1.6,9.6-3.9,20.1-7,31.2c-2.5,9.1-5.3,17.5-8.2,25.2"/>
		<path class="st19" d="M546.7,785.2c-4.2,6.2-8.5,13-12.7,20.6c-4.5,8.2-8.3,16.1-11.5,23.5c-0.2,0.5-0.4,1-0.7,1.5"/>
		<path class="st19" d="M563.7,769c-0.4,0.4-0.8,0.9-1.1,1.3l0,0c-5.8,6.8-12.2,15.1-18.2,25.3c-2.6,4.4-4.9,8.6-7,12.7
			c-2.4,4.8-4.4,9.3-6,13.5"/>
		<path class="st19" d="M495.6,734.4c0,0.6-0.1,1.2-0.1,1.8c-0.3,3.3-0.7,7-1.5,11c-0.3,1.4-0.6,2.8-0.9,4.2c-1,4-2.1,7.5-3.3,10.7"
			/>
		<path class="st19" d="M559.4,739L559.4,739c-2.1,6.9-4.2,13.8-6.3,20.6"/>
		<path class="st26" d="M303.8,991.4C303.6,991.4,303.8,991.4,303.8,991.4c-16.6,0.1-36.7,1.5-59.2,6c-26.8,5.4-47.9,19.5-51,14.9
			c-1-1.5,2.2-6.5,8.5-16.5c4.1-6.5,9.1-13.7,14.4-22.5c6.5-10.6,7-12.4,6.4-14.5c-1.4-5.3-8.5-8-18.3-11.6
			c-4.9-1.8-8.9-2.9-15.2-4.4c-21.6-5.1-26.3-4.9-26.6-6.7c-0.7-5.5,40.1-15.1,43.9-16c11.5-2.7,21.1-4.3,27.5-5.3"/>
		<path class="st26" d="M261.2,968.7L261.2,968.7c14.1,7.4,28.3,14.8,42.4,22.2"/>
		<path class="st26" d="M291.1,962.4c4.1,9.5,8.3,19,12.5,28.5c0.1,0.2,0.1,0.3,0.2,0.5"/>
		<path class="st17" d="M602.2,969.2c-14.8,9.6-21.9,16-25,20.4c-2.2,3-2.3,5.1-1.8,6.5c1.7,4.9,12,3.5,42.3,5.7
			c30.2,2.1,45.3,3.2,63,7.8c16.9,4.3,26.5,9.1,28.4,6.2c3-4.7-16.6-23-20.1-26.3c-16.3-15.3-27-19.3-25.8-24.8
			c0.9-4.1,7.5-4.3,23.2-10.3c15.4-5.9,29.1-11.1,28.9-16c-0.3-7.4-31.7-12.2-59.3-16.5c-18-2.8-33-4.3-43-5.2"/>
		<path class="st17" d="M583.6,967.2c-2.1,7.5-4.3,15-6.4,22.4c-0.6,2.2-1.2,4.3-1.8,6.5"/>
		<path class="st20" d="M305.2,808.2c-2.6,0.8-10.1,3.5-14.3,10.8c-1.3,2.3-3.8,6.7-2.2,11.5c0.6,1.8,1.6,3.2,2.7,4.3
			c1.3,1.3,2.6,2,3.1,2.3s1.1,0.5,1.6,0.7c1.9,0.7,3.9,0.8,6.1,0.7c0.7,0,1.4,0,2.1-0.1c1,0,2-0.1,2.8-0.2c1-0.1,1.8-0.3,2.5-0.4"/>
		<path class="st27" d="M291.3,834.8c-0.1-1.8,0-4.7,1.1-8c0.8-2.3,1.8-4.2,2.7-5.5"/>
		<path class="st27" d="M296,837.8c0.2-2.4,0.5-4.3,0.8-5.8c0.3-1.3,0.7-3,1.5-5c0.6-1.4,1.2-2.5,1.7-3.3"/>
		<path class="st28" d="M302.1,838.5c-0.1-1.1-0.1-2.4,0-3.7c0.2-2.7,0.8-4.9,1.4-6.7"/>
		<path class="st28" d="M307,838.2c-0.1-1.2-0.2-2.9,0.2-4.9c0.2-0.9,0.4-1.7,0.7-2.4c0.1-0.4,0.3-0.7,0.4-1"/>
		<path class="st23" d="M311.8,791.2c2.8,5.6,5.6,11.7,8.3,18.2c4.1,9.8,7.3,19.1,9.9,27.8"/>
		<path class="st23" d="M341,780.5c1.3,6.1,2.9,12.7,5,19.5c4,12.9,8.8,24.1,13.6,33.5"/>
		<path class="st23" d="M395.6,768.8c2,10.8,3.6,23.8,3.9,38.4c0.2,12.7-0.6,24.2-1.9,34.1"/>
		<path class="st23" d="M437.4,769.5c-1.8,9.1-3.3,19.4-4.1,30.7c-1.1,14.7-0.7,28,0.3,39.4"/>
		<path class="st23" d="M526.2,786.4c-3.6,7.3-7.3,16-10.5,25.9c-2.4,7.5-4.2,14.6-5.5,21.1"/>
		<path class="st23" d="M494.9,778c-1.5,7.7-3.4,15.9-5.9,24.7c-2.7,9.4-5.6,18-8.7,25.8"/>
		<path class="st23" d="M458.5,750.5c0.1,9.5-0.1,19.6-0.9,30.3c-1.4,19.2-4.1,36.6-7.4,51.9"/>
		<path class="st23" d="M486.8,753.3c-3.1,10.6-6.1,22-8.8,34.3c-2.4,10.8-4.2,21.2-5.7,31"/>
		<path class="st19" d="M329.4,561.8c-2.2-4.2-6.2-13.8-4.6-25.9c0.6-4.4,2.1-16.1,11.7-23.8c2.5-2,11.5-9.2,20.5-5.6
			c6.4,2.6,9,9.3,9.6,11"/>
		<line class="st19" x1="329.4" y1="561.8" x2="329.4" y2="561.8"/>
		<path class="st19" d="M361.5,523.6c-0.9,1.4-2.1,3-3.5,4.9c-4.2,5.5-6.9,7.6-9.6,10.6c0,0,0,0.1-0.1,0.1c-0.6,0.7-1.2,1.4-1.8,2.2
			c0,0,0,0.1-0.1,0.1c-0.6,0.8-1.3,1.7-2,2.7c-0.9,1.3-1.9,3-3.9,4.8c-0.7,0.6-1.2,1.1-1.7,1.5c-1.7,1.3-2.6,1.3-4.1,3.3
			c-1.5,2.1-1.6,3.5-3.8,5.1c-1.1,0.8-2,1.1-1.9,1.4c0,0.2,0.6,0.3,1.3,0.3c1.4,0,3.6-0.3,5.3-0.7c2.9-0.5,5.9-1.4,7.7-2.3
			c9.7-4.2,16.2-17,16.9-18.5c4.5-9,6.3-18.8,5.4-20.8c-0.1-0.2-0.2-0.3-0.3-0.4c-0.6-0.2-1.4,1.6-3.7,5.2c-0.1,0.1-0.1,0.2-0.2,0.3
			"/>
		<path class="st19" d="M460.6,512.7c0-5.6,4.8-11.1,9.5-13.1c10.2-4.5,22.2,6,23.8,7.4c12.3,11,10.8,27.2,10.5,30.5
			c-0.4,4.9-1,11.9-6,14.6c-6,3.3-14.7-1.9-16.8-3.1c-3.4-2-5.5-4.3-7.3-6.2c-4.4-4.7-6.5-9.1-8.3-12.7c-2.9-5.9-4-10.7-4.7-13.6
			C460.8,514.6,460.6,513.6,460.6,512.7z"/>
		<path class="st20" d="M360.4,524.8c-1.1,0.9-2.5,1.4-4,1.4c-3.5,0-6.3-2.8-6.3-6.3s2.8-6.3,6.3-6.3s6.3,2.8,6.3,6.3
			c0,1.2-0.3,2.2-0.8,3.2c0,0.1-0.1,0.2-0.1,0.3s-0.1,0.1-0.1,0.2C361.2,524,360.8,524.4,360.4,524.8L360.4,524.8z"/>
		<circle class="st20" cx="468.2" cy="514.2" r="6.4"/>
	</g>
</g>
<g>
	<g class="st29">
		<path class="st30" d="M247.3,919c-1,0.3-1.6,0.4-2.6,0.6c-1.6,0.4-3,0.3-4-0.3c-1.1-0.7-1.9-1.6-2.2-2.8c-0.2-0.8-0.2-1.6,0.1-2.5
			c0.3-0.9,0.8-1.6,1.4-2.1c0.2-0.2,0.5-0.4,0.7-0.5c0.2-0.1,0.5-0.2,0.8-0.3c0.1,0,0.5-0.1,1.3-0.4c0.8-0.2,1.7-0.5,2.5-0.7
			c4-1,6-1.5,10.1-2.4c1.8-0.4,2.9-0.6,3.4-0.7c0.5-0.1,1,0,1.5,0c0.8,0.1,1.6,0.5,2.3,1.1c0.7,0.6,1.1,1.4,1.3,2.2
			c0.3,1.3,0,2.6-0.9,3.8c-0.6,0.9-1.8,1.5-3.6,1.9c-0.9,0.2-1.4,0.3-2.3,0.5c1.3,5.7,2,8.6,3.3,14.3c0.2,1,0.3,1.7,0.3,2.2
			c0,0.5-0.1,1-0.3,1.6c-0.6,1.6-1.7,2.7-3.4,3.1c-1.7,0.4-3.2,0.1-4.4-1c-0.5-0.4-0.8-0.8-1.1-1.3c-0.2-0.5-0.5-1.2-0.7-2.2
			C249.4,927.6,248.7,924.8,247.3,919z M246,916.2c-0.6,0.1-0.9,0.2-1.4,0.4c-0.8,0.2-1.3,0.3-1.6,0.2c-0.2,0-0.6-0.3-1.2-0.8
			c-0.2-0.2-0.4-0.2-0.7-0.1c-0.5,0.1-0.7,0.5-0.5,1c0.1,0.6,0.6,1,1.3,1.2c0.4,0.1,0.8,0.2,1.2,0.2c0.4,0,0.8-0.1,1.4-0.2
			c0.7-0.2,1-0.2,1.7-0.4c0.6-0.1,1-0.3,1.2-0.4c0.2-0.2,0.2-0.4,0.2-0.7c-0.1-0.3-0.2-0.4-0.4-0.5C246.9,916,246.5,916.1,246,916.2
			z M241.2,913.5c-0.2,0.1-0.4,0.2-0.6,0.4c-0.1,0.2-0.2,0.4-0.1,0.7c0.1,0.2,0.2,0.4,0.4,0.5c0.2,0.1,0.5,0.2,0.7,0.1
			c0.2-0.1,0.4-0.2,0.5-0.4c0.1-0.2,0.2-0.4,0.1-0.7c-0.1-0.2-0.2-0.4-0.4-0.5C241.7,913.4,241.5,913.4,241.2,913.5z M249.2,919
			c1.3,5.4,2,8,3.3,13.4c0.2,1,0.5,1.7,0.7,2.2c0.2,0.4,0.5,0.8,0.9,1.1c0.7,0.6,1.5,0.7,2.4,0.5c0.6-0.1,0.8-0.5,0.7-1
			c-0.1-0.4-0.4-0.5-1.1-0.5c-0.6,0-1.1-0.1-1.4-0.5c-0.3-0.4-0.6-1.1-0.8-2.2c-1.3-5.4-1.9-8-3.2-13.4c-0.2-0.7-0.5-1-1.1-0.9
			C249.1,917.9,249,918.3,249.2,919z M259,913.1c-0.5,0.1-0.8,0.2-1.4,0.3c-0.8,0.2-1.4,0.4-1.6,0.5c-0.2,0.1-0.3,0.4-0.2,0.7
			c0.1,0.2,0.2,0.4,0.4,0.5c0.2,0.1,0.6,0,1.1-0.1c0.9-0.2,1.4-0.3,2.3-0.5c0.7-0.2,1.2-0.4,1.7-0.8c0.4-0.4,0.6-0.8,0.5-1.1
			c0-0.2-0.1-0.3-0.3-0.4c-0.2-0.1-0.4-0.2-0.6-0.1c-0.2,0-0.5,0.3-0.8,0.6C259.8,912.8,259.5,913,259,913.1z"/>
		<path class="st30" d="M275.9,909.3c1.4,7.1,2.2,10.7,3.6,17.9c0.3,1.7,0.2,3-0.5,4.1c-0.7,1.3-1.8,2-3.3,2.3
			c-1.4,0.3-2.7,0-3.9-0.8c-0.5-0.4-1-0.8-1.3-1.4c-0.3-0.5-0.6-1.3-0.8-2.3c-1.5-7.1-2.3-10.7-3.9-17.8c-0.3-1.2-0.4-2.1-0.3-2.7
			c0-0.6,0.3-1.2,0.6-1.9c0.7-1.2,1.9-2,3.4-2.3c1.5-0.3,2.8-0.1,4,0.7c0.6,0.4,1,0.9,1.4,1.5C275.4,907.4,275.7,908.2,275.9,909.3z
			 M267.7,910.7c1.5,7.1,2.3,10.6,3.8,17.7c0.2,1.1,0.5,1.9,0.8,2.3c0.3,0.5,0.7,0.8,1.3,1c0.6,0.2,1.1,0.3,1.5,0.2
			c0.6-0.1,0.9-0.5,0.8-1c0-0.2-0.1-0.4-0.3-0.5c-0.1-0.1-0.4-0.1-1-0.1c-0.5,0-0.9-0.2-1.1-0.5c-0.2-0.3-0.4-0.9-0.6-1.7
			c-1.5-7.1-2.3-10.6-3.8-17.7c-0.1-0.7-0.5-1-0.9-0.9c-0.3,0.1-0.5,0.2-0.6,0.4C267.6,910.1,267.6,910.4,267.7,910.7z M268.5,907.1
			c-0.2,0-0.4,0.2-0.6,0.4c-0.2,0.2-0.2,0.4-0.2,0.7c0,0.2,0.2,0.4,0.4,0.5c0.2,0.1,0.4,0.2,0.7,0.1c0.2,0,0.4-0.2,0.6-0.4
			c0.2-0.2,0.2-0.4,0.2-0.7c0-0.2-0.2-0.4-0.4-0.5C269,907.1,268.7,907,268.5,907.1z"/>
		<path class="st30" d="M300.6,918.5c-0.6,0.1-0.9,0.1-1.4,0.2c-1,0.2-1.8,0.2-2.4,0c-0.6-0.2-1.2-0.5-1.6-1
			c-0.4-0.5-0.7-1.1-0.8-1.7c-0.2-1.1,0.1-2.1,0.9-3c0.6-0.6,1.7-1.1,3.3-1.3c0.8-0.1,1.8-0.3,3-0.5c1.2-0.2,1.9-0.3,2-0.3
			c0.7-0.1,1.3-0.1,1.9,0c0.6,0.1,1.1,0.3,1.5,0.5c1.3,0.7,2.1,2.2,2.4,4.3c0.1,0.7,0.2,1.6,0.4,2.6c0.1,1,0.2,1.6,0.2,1.7
			c0.1,0.9,0,1.8-0.5,2.7c-0.4,0.8-1.1,1.8-2.1,2.7c-2.4,2.2-5.1,3.6-8.2,4.2c-3.7,0.7-7.3,0.1-10.6-1.7c-1.9-1-3.5-2.4-4.8-4.1
			c-1.6-2-2.6-4.2-3.1-6.5c-0.6-2.9-0.3-5.8,0.9-8.7c1.1-2.7,2.9-4.9,5.3-6.6c2.1-1.5,4.4-2.4,6.9-2.9c3.1-0.5,6.1-0.2,9,0.9
			c2.3,0.9,3.6,2.3,3.9,4c0.2,1.3-0.1,2.5-1,3.6c-0.8,1.1-1.9,1.8-3.3,2c-0.4,0.1-0.8,0.1-1.1,0c-1.1-0.3-1.6-0.4-2.7-0.7
			c-0.6-0.2-1.1-0.3-1.7-0.3c-0.6,0-1.1,0-1.6,0.1c-1.5,0.3-2.7,1.1-3.7,2.4c-0.9,1.3-1.2,2.7-0.9,4.2c0.3,1.5,1.1,2.7,2.4,3.7
			c1.3,0.9,2.8,1.2,4.4,0.9C298.5,920,299.5,919.4,300.6,918.5z M304.7,923.8c-0.1,0-0.3,0.1-0.6,0.3c-1.8,1.3-3.6,2.1-5.6,2.4
			c-3.2,0.6-6.2,0-8.9-1.7c-3-1.9-4.9-4.5-5.6-8c-0.2-1.2-0.3-2.2-0.2-3.2c0.1-1,0.4-2.2,0.9-3.6c0.1-0.3,0.1-0.5,0.1-0.7
			c-0.1-0.4-0.4-0.7-0.8-0.6c-0.3,0.1-0.6,0.5-0.9,1.3c-0.9,2.2-1,4.6-0.6,7c0.7,3.8,2.8,6.8,6.1,8.9c1.5,0.9,3.1,1.6,4.9,2
			c1.8,0.4,3.5,0.4,5.3,0.1c1.6-0.3,3.1-0.8,4.6-1.6c1.5-0.8,2.2-1.5,2.1-2C305.4,923.9,305.1,923.7,304.7,923.8z M285.3,906.7
			c-0.2,0-0.4,0.2-0.6,0.4c-0.2,0.2-0.2,0.4-0.2,0.7c0,0.2,0.2,0.4,0.4,0.5c0.2,0.1,0.4,0.2,0.7,0.1c0.2,0,0.4-0.2,0.5-0.4
			c0.2-0.2,0.2-0.4,0.2-0.6c0-0.2-0.2-0.4-0.4-0.5C285.8,906.7,285.5,906.6,285.3,906.7z M303.3,905.7c-0.1,0-0.4,0.2-0.7,0.5
			c-0.3,0.3-0.6,0.5-0.9,0.5c-0.2,0-0.6,0-1.2-0.3c-1.9-0.7-3.7-0.9-5.4-0.6c-0.6,0.1-1.2,0.3-1.7,0.4c-0.5,0.2-1,0.4-1.6,0.7
			c-1,0.5-1.4,1-1.3,1.4c0.1,0.5,0.4,0.7,0.8,0.6c0.2,0,0.5-0.2,0.9-0.5c0.8-0.6,1.9-1,3.1-1.2c1.4-0.2,2.8-0.1,4.3,0.5
			c0.6,0.2,0.9,0.3,1.5,0.5c0.3,0,0.7,0,1,0c0.6-0.1,1.1-0.3,1.5-0.7c0.4-0.4,0.7-0.8,0.6-1.2c0-0.2-0.1-0.4-0.3-0.5
			C303.7,905.7,303.5,905.6,303.3,905.7z M299.9,915.4c-0.7,0.1-1,0.2-1.7,0.3c-0.3,0-0.4,0-0.5-0.2c0,0,0-0.1,0-0.1
			c0,0,0-0.1,0.1-0.2c0-0.1,0.1-0.3,0.1-0.4c0-0.5-0.4-0.7-0.9-0.6c-0.3,0.1-0.6,0.2-0.8,0.6c-0.1,0.2-0.2,0.3-0.2,0.5
			c0,0.2,0,0.4,0,0.6c0.1,0.6,0.4,1,0.8,1.2c0.4,0.3,1,0.3,1.6,0.2c0.7-0.1,1-0.2,1.7-0.3c0.7-0.1,1.3-0.1,1.5,0
			c0.3,0.1,0.6,0.5,0.9,1.2c0.2,0.4,0.4,0.5,0.8,0.5c0.5-0.1,0.8-0.4,0.7-1c-0.1-0.4-0.2-0.8-0.5-1.2c-0.3-0.4-0.6-0.7-1-0.9
			C301.8,915.3,301,915.3,299.9,915.4z"/>
		<path class="st30" d="M330.5,914.1c-0.6,0.1-0.9,0.1-1.4,0.2c-1,0.1-1.8,0.1-2.4-0.1c-0.6-0.2-1.1-0.6-1.5-1.1
			c-0.4-0.5-0.6-1.1-0.7-1.7c-0.2-1.1,0.2-2.1,1-2.9c0.6-0.6,1.8-1,3.3-1.2c0.8-0.1,1.8-0.2,3-0.3c1.2-0.1,1.9-0.2,2-0.2
			c0.7-0.1,1.3-0.1,1.9,0c0.6,0.1,1.1,0.3,1.5,0.6c1.2,0.8,2,2.3,2.2,4.4c0.1,0.7,0.2,1.6,0.2,2.6c0.1,1,0.1,1.6,0.1,1.7
			c0.1,0.9-0.1,1.8-0.6,2.7c-0.5,0.8-1.2,1.7-2.2,2.6c-2.5,2.1-5.3,3.4-8.4,3.8c-3.8,0.5-7.2-0.2-10.5-2.1c-1.8-1.1-3.4-2.5-4.7-4.3
			c-1.5-2-2.4-4.3-2.8-6.7c-0.5-2.9,0-5.8,1.3-8.7c1.2-2.6,3.1-4.7,5.6-6.4c2.2-1.4,4.5-2.3,7-2.6c3.1-0.4,6.1,0,8.9,1.3
			c2.3,1,3.5,2.4,3.7,4.2c0.2,1.3-0.2,2.5-1.1,3.6c-0.9,1.1-2,1.7-3.4,1.9c-0.4,0.1-0.8,0-1.1,0c-1.1-0.3-1.6-0.5-2.7-0.8
			c-0.5-0.2-1.1-0.3-1.7-0.4c-0.6-0.1-1.1-0.1-1.6,0c-1.5,0.2-2.8,1-3.8,2.2c-1,1.2-1.3,2.6-1.1,4.2c0.2,1.5,1,2.8,2.2,3.8
			c1.3,1,2.7,1.3,4.3,1.1C328.4,915.4,329.4,914.9,330.5,914.1z M334.4,919.5c-0.1,0-0.3,0.1-0.6,0.3c-1.8,1.2-3.7,1.9-5.7,2.2
			c-3.2,0.4-6.1-0.3-8.8-2.1c-3-2-4.7-4.8-5.3-8.2c-0.2-1.2-0.2-2.2-0.1-3.2c0.1-1,0.5-2.1,1.1-3.5c0.1-0.3,0.1-0.5,0.1-0.6
			c0-0.5-0.3-0.7-0.8-0.6c-0.3,0-0.6,0.5-1,1.2c-0.9,2.2-1.2,4.5-0.8,7c0.6,3.8,2.5,6.9,5.7,9.1c1.4,1,3,1.7,4.8,2.2
			c1.8,0.4,3.5,0.5,5.2,0.3c1.6-0.2,3.1-0.7,4.6-1.4s2.2-1.4,2.1-1.9C335.1,919.7,334.8,919.5,334.4,919.5z M315.7,901.6
			c-0.2,0-0.4,0.1-0.6,0.3c-0.2,0.2-0.2,0.4-0.2,0.6c0,0.2,0.1,0.4,0.3,0.6c0.2,0.1,0.4,0.2,0.7,0.2c0.2,0,0.4-0.1,0.6-0.3
			c0.2-0.2,0.2-0.4,0.2-0.6c0-0.2-0.1-0.4-0.3-0.5C316.2,901.6,316,901.5,315.7,901.6z M333.7,901.3c-0.1,0-0.4,0.2-0.7,0.5
			c-0.3,0.3-0.6,0.4-0.9,0.5c-0.2,0-0.6-0.1-1.2-0.3c-1.8-0.8-3.6-1-5.4-0.8c-0.6,0.1-1.2,0.2-1.7,0.4c-0.5,0.2-1.1,0.4-1.6,0.6
			c-1,0.5-1.5,0.9-1.4,1.4c0.1,0.5,0.3,0.7,0.8,0.6c0.2,0,0.5-0.2,0.9-0.5c0.9-0.6,1.9-0.9,3.1-1.1c1.4-0.2,2.8,0,4.3,0.7
			c0.6,0.2,0.9,0.3,1.4,0.5c0.3,0.1,0.6,0.1,1,0c0.6-0.1,1.1-0.3,1.5-0.7c0.4-0.4,0.7-0.8,0.7-1.2c0-0.2-0.1-0.4-0.3-0.5
			C334.1,901.4,333.9,901.3,333.7,901.3z M330,911c-0.7,0.1-1,0.1-1.7,0.2c-0.3,0-0.4,0-0.5-0.2c0,0,0-0.1,0-0.1c0,0,0-0.1,0.1-0.2
			c0.1-0.1,0.1-0.3,0.1-0.4c0-0.5-0.4-0.7-0.9-0.7c-0.3,0-0.6,0.2-0.8,0.5c-0.1,0.2-0.2,0.3-0.2,0.5c0,0.2,0,0.4,0,0.6
			c0.1,0.6,0.3,1,0.7,1.2c0.4,0.3,1,0.4,1.6,0.3c0.7-0.1,1-0.1,1.7-0.2c0.7-0.1,1.3,0,1.5,0.1c0.3,0.1,0.5,0.6,0.8,1.3
			c0.1,0.4,0.4,0.6,0.7,0.5c0.5-0.1,0.8-0.4,0.7-1c0-0.4-0.2-0.8-0.5-1.2c-0.3-0.4-0.6-0.7-1-0.9C331.9,910.9,331,910.8,330,911z"/>
		<path class="st30" d="M352.6,912.6c1.8-0.2,2.7-0.3,4.5-0.4c1.1-0.1,2-0.1,2.5,0c0.6,0.1,1.1,0.4,1.7,0.7c1.1,0.8,1.8,1.9,1.9,3.3
			c0.1,1.4-0.3,2.6-1.3,3.6c-0.4,0.4-0.9,0.7-1.5,0.9c-0.2,0.1-0.6,0.2-1,0.2c-0.4,0.1-0.9,0.1-1.5,0.2c-3,0.3-4.6,0.4-7.6,0.7
			c-0.2,0-0.2,0-0.4,0c-0.1,0-0.2,0-0.3,0c-0.1,0-0.2,0-0.3,0c-0.6,0.1-1,0.1-1.3,0.1c-0.3,0-0.5,0-0.7,0c-0.2,0-0.4-0.1-0.7-0.2
			c-1.2-0.3-2.1-0.9-2.6-1.8c-0.5-0.8-0.9-2.3-1.1-4.3c-0.7-6.3-1.1-9.5-1.8-15.9c-0.2-1.6-0.2-2.7-0.1-3.3c0.1-0.6,0.4-1.2,0.9-1.9
			c0.5-0.7,1.2-1.1,1.9-1.4c0.8-0.3,2-0.5,3.8-0.7c2.4-0.2,3.6-0.4,6.1-0.6c2-0.2,3.2-0.2,3.8-0.2c0.6,0,1.2,0.2,1.8,0.6
			c1.3,0.8,2,1.9,2.1,3.3c0.1,1.5-0.3,2.7-1.3,3.7c-0.8,0.8-2.1,1.3-3.8,1.4c-2,0.2-3,0.3-4.9,0.5c0.1,0.8,0.1,1.2,0.2,2
			c1.6-0.2,2.4-0.2,3.9-0.4c1.1-0.1,2,0.1,2.8,0.5c1,0.6,1.5,1.5,1.6,2.6c0.1,1.1-0.3,2.1-1.1,2.9c-0.6,0.6-1.6,0.9-3,1
			c-1.4,0.1-2.1,0.2-3.5,0.3C352.4,911.2,352.5,911.7,352.6,912.6z M342.8,898.7c0.8,7.3,1.2,11,2,18.3c0.2,1.6,0.6,2.4,1.2,2.3
			c0.2,0,0.4-0.1,0.5-0.3c0.1-0.1,0.2-0.3,0.2-0.6c-0.1-0.3-0.1-0.4-0.2-0.6c-0.1-0.2-0.1-0.6-0.2-1.1c-0.8-7.3-1.2-11-1.9-18.3
			c-0.1-0.7-0.4-1-0.9-0.9c-0.3,0-0.5,0.1-0.6,0.3S342.8,898.3,342.8,898.7z M344,895.2c-0.2,0-0.4,0.1-0.6,0.3
			c-0.1,0.1-0.2,0.4-0.2,0.6c0,0.2,0.1,0.5,0.3,0.6c0.2,0.1,0.4,0.2,0.7,0.2c0.2,0,0.4-0.1,0.6-0.3c0.2-0.2,0.2-0.4,0.2-0.6
			c0-0.2-0.1-0.4-0.3-0.6C344.4,895.3,344.2,895.2,344,895.2z M357.8,918.1c-2.5,0.2-3.7,0.3-6.2,0.6c-0.4,0-0.7,0.1-0.8,0.3
			c-0.1,0.1-0.2,0.3-0.2,0.6c0.1,0.5,0.4,0.7,1.2,0.6c2.5-0.2,3.7-0.4,6.2-0.6c1.1-0.1,1.9-0.3,2.3-0.5c0.6-0.4,0.9-0.8,0.8-1.2
			c0-0.2-0.1-0.3-0.3-0.5c-0.1-0.1-0.3-0.2-0.5-0.2c-0.1,0-0.3,0.1-0.5,0.2c-0.4,0.3-0.6,0.4-0.8,0.5c-0.2,0.1-0.3,0.1-0.5,0.1
			C358.3,918,358.1,918,357.8,918.1z M356.1,897.8c-1.7,0.2-2.6,0.2-4.3,0.4c-0.5,0-0.8,0.1-1,0.2c-0.2,0.1-0.2,0.3-0.2,0.6
			c0,0.3,0.1,0.5,0.3,0.6c0.1,0.1,0.5,0.1,1.1,0c1.7-0.2,2.6-0.2,4.3-0.4c1-0.1,1.8-0.3,2.2-0.5c0.5-0.3,0.8-0.7,0.7-1.2
			c0-0.2-0.1-0.3-0.3-0.5c-0.2-0.1-0.4-0.2-0.6-0.2c-0.1,0-0.3,0.1-0.6,0.3C357.4,897.6,356.8,897.8,356.1,897.8z M355.4,906.9
			c-1.2,0.1-1.8,0.2-3,0.3c-0.7,0.1-1,0.3-0.9,0.8c0,0.5,0.4,0.7,1.1,0.6c1.6-0.2,2.5-0.2,4.1-0.4c0.4,0,0.7-0.2,1-0.4
			s0.4-0.4,0.4-0.7c0-0.2-0.1-0.3-0.2-0.5c-0.1-0.1-0.3-0.2-0.5-0.2c-0.2,0-0.2,0.1-0.4,0.1C356.5,906.8,356,906.9,355.4,906.9z"/>
		<path class="st30" d="M385.5,907.9c1,1.4,1.5,2.1,2.5,3.5c0.7,1,1.1,2,1.1,3.1c0.1,1.3-0.4,2.5-1.3,3.4c-0.9,1-2,1.5-3.4,1.5
			c-1.8,0.1-3.1-0.6-4.2-2c-1.8-2.6-2.7-3.8-4.6-6.4c0.1,1.6,0.2,2.4,0.3,4c0.1,1.4-0.3,2.6-1.2,3.6c-0.9,1-2,1.5-3.3,1.6
			c-1.6,0.1-2.9-0.4-4-1.5c-0.9-0.9-1.4-2.2-1.5-4c-0.6-7.2-0.8-10.8-1.4-18c-0.1-1.9,0.3-3.3,1.2-4.3c1-1,2.5-1.6,4.7-1.7
			c2.6-0.2,3.9-0.3,6.5-0.4c2.1-0.1,4.2,0.4,6.2,1.5c1.8,1,3.2,2.4,4.1,4.3c0.7,1.4,1.1,2.8,1.1,4.2c0.1,1.4-0.1,2.7-0.6,3.9
			C387.4,905.3,386.6,906.6,385.5,907.9z M366.4,896.8c0.5,7.2,0.8,10.8,1.4,17.9c0.1,1.6,0.5,2.6,1,3.1c0.6,0.6,1.4,0.8,2.3,0.8
			c0.7,0,1-0.4,1-0.9c0-0.2-0.1-0.4-0.2-0.4c-0.1-0.1-0.4-0.2-0.9-0.3c-0.5-0.1-0.9-0.3-1.2-0.7c-0.2-0.3-0.4-0.9-0.4-1.7
			c-0.5-7.2-0.8-10.8-1.3-18c-0.1-0.9-0.4-1.3-0.9-1.2C366.6,895.5,366.3,895.9,366.4,896.8z M367.6,893.1c-0.2,0-0.4,0.1-0.6,0.3
			c-0.2,0.2-0.3,0.4-0.2,0.6c0,0.2,0.1,0.4,0.3,0.6c0.2,0.2,0.4,0.2,0.7,0.2c0.2,0,0.4-0.1,0.6-0.3c0.2-0.2,0.3-0.4,0.2-0.6
			c0-0.2-0.1-0.4-0.3-0.6S367.8,893.1,367.6,893.1z M375.8,896.3c-0.7,0-1.1,0.1-1.3,0.2c-0.2,0.1-0.3,0.3-0.3,0.6
			c0,0.3,0.1,0.5,0.3,0.6c0.2,0.1,0.5,0.1,0.9,0.1c1.2-0.1,2.1,0,2.7,0.2s1.1,0.5,1.4,1.1c0.4,0.5,0.6,1.2,0.6,2
			c0,0.6,0.3,1,0.8,0.9s0.8-0.4,0.7-1.2c-0.1-1.6-0.8-2.9-2.1-3.7C378.7,896.5,377.4,896.2,375.8,896.3z M375,899.4
			c0.1,1.3,0.1,1.9,0.2,3.2c0.4,0,0.7,0,1.1,0c1.5-0.1,2.3-0.7,2.2-1.7c0-0.3-0.2-0.6-0.4-0.9c-0.2-0.3-0.5-0.5-0.9-0.5
			c-0.1,0-0.3,0-0.8,0C376,899.4,375.5,899.4,375,899.4z M376,908.5c2.1,2.9,3.1,4.4,5.1,7.3c0.5,0.8,1,1.3,1.5,1.6
			c0.5,0.3,1,0.4,1.6,0.4c0.8,0,1.1-0.3,1.1-0.8c0-0.4-0.4-0.7-1-0.8c-0.7-0.1-1.3-0.4-1.9-1.1c-2-2.9-3-4.4-5.1-7.3
			c-0.4-0.6-0.7-0.8-1.1-0.8c-0.5,0-0.7,0.3-0.6,0.8C375.6,907.9,375.7,908.2,376,908.5z"/>
		<path class="st30" d="M418.2,888.2c3.8,0,7.3,1.2,10.4,3.6c2.5,1.9,3.7,3.9,3.6,5.9c0,1.7-0.8,3-2.3,4c-0.9,0.5-1.8,0.8-2.8,0.8
			c-0.8,0-1.6-0.2-2.3-0.6c-0.3-0.1-1.1-0.9-2.3-2.2c-1.1-1.2-2.6-1.8-4.3-1.8c-1.5,0-2.9,0.5-4,1.5c-1.2,1.1-1.8,2.5-1.8,4.3
			c0,1.6,0.6,3,1.8,4.1c1.2,1.1,2.5,1.6,4.1,1.6c1.4,0,2.6-0.5,3.8-1.3c0.2-0.2,0.8-0.7,1.7-1.6c0.9-0.9,2-1.4,3.4-1.3
			c1.4,0,2.5,0.5,3.5,1.4c1,1,1.5,2.1,1.5,3.4c0,1.8-1.1,3.6-3.3,5.4c-3,2.6-6.5,3.8-10.4,3.8c-2.5,0-4.7-0.5-6.9-1.5
			c-2.9-1.3-5.2-3.3-6.9-6c-1.5-2.4-2.3-4.9-2.4-7.7c-0.1-4.4,1.5-8.3,4.9-11.5c1.5-1.4,3.2-2.5,5-3.2
			C414,888.5,416,888.2,418.2,888.2z M424.9,914.4c-0.2,0-0.5,0.1-0.9,0.3c-1.9,0.9-3.8,1.3-5.6,1.3c-2.5,0-4.9-0.7-7.1-2.1
			c-1.8-1.2-3.3-2.7-4.3-4.7c-0.9-1.7-1.4-3.5-1.4-5.4c0-1.1,0.1-2.2,0.5-3.4c0.3-1.2,0.8-2.3,1.3-3.2c0.2-0.3,0.3-0.6,0.3-0.8
			c0-0.2-0.1-0.4-0.2-0.5c-0.1-0.1-0.3-0.2-0.5-0.2c-0.5,0-1,0.6-1.5,1.8c-0.6,1.3-0.9,2.4-1.1,3.3c-0.2,0.9-0.3,1.8-0.3,2.9
			c0.1,3.5,1.3,6.5,3.6,9c1.4,1.6,3.1,2.8,5.2,3.6c1.8,0.7,3.7,1.1,5.6,1.1c1.6,0,3.2-0.3,4.7-0.8c1.6-0.5,2.4-1.1,2.4-1.6
			c0-0.2-0.1-0.3-0.2-0.5C425.3,914.5,425.1,914.4,424.9,914.4z M408.6,893.8c-0.2,0-0.4,0.1-0.6,0.3c-0.2,0.2-0.3,0.4-0.3,0.6
			c0,0.2,0.1,0.4,0.3,0.6c0.2,0.2,0.4,0.3,0.6,0.3c0.2,0,0.4-0.1,0.6-0.3c0.2-0.2,0.3-0.4,0.3-0.6c0-0.2-0.1-0.4-0.3-0.6
			C409.1,893.9,408.9,893.8,408.6,893.8z M429,898.7c-0.1,0-0.4,0.1-0.7,0.3c-0.3,0.2-0.6,0.3-1,0.3c-0.5,0-1-0.4-1.7-1.1
			c-1.1-1.2-2.2-2.1-3.4-2.6c-1.2-0.6-2.6-0.8-4.1-0.8c-1.7,0-3.1,0.4-4.4,1.1c-0.3,0.2-0.5,0.4-0.5,0.8c0,0.2,0.1,0.3,0.2,0.4
			c0.1,0.1,0.3,0.2,0.5,0.2c0.1,0,0.4-0.1,0.9-0.3c1-0.5,2.1-0.7,3.4-0.8c1.2,0,2.3,0.2,3.3,0.7c1,0.5,2,1.3,3,2.4
			c0.5,0.5,0.9,0.9,1.3,1.2c0.4,0.2,0.9,0.3,1.4,0.4c0.6,0,1.2-0.1,1.7-0.4c0.5-0.3,0.7-0.6,0.7-0.9c0-0.2-0.1-0.4-0.2-0.6
			C429.4,898.8,429.3,898.7,429,898.7z"/>
		<path class="st30" d="M445.5,908.4c-0.1,1.7-0.1,2.5-0.1,4.2c0,1.3-0.1,2.2-0.2,2.6c-0.1,0.4-0.3,0.9-0.7,1.5
			c-1,1.4-2.4,2.1-4.1,2c-1.8,0-3.1-0.8-4-2.3c-0.3-0.5-0.5-1-0.7-1.6c-0.1-0.3-0.1-0.6-0.1-1c0-0.4,0-0.9,0-1.5
			c0.1-7.1,0.2-10.6,0.3-17.7c0-1,0.1-1.8,0.3-2.3c0.2-0.6,0.4-1.1,0.9-1.6c1-1.2,2.4-1.8,4.1-1.8c1.7,0,3.1,0.7,4.1,2
			c0.4,0.5,0.6,1,0.7,1.5c0,0.2,0.1,0.6,0.1,1c0,0.5,0,1,0,1.7c-0.1,1.7-0.1,2.5-0.1,4.2c2.5,0.1,3.7,0.1,6.2,0.2
			c0.1-1.6,0.1-2.4,0.2-4.1c0-1.2,0.2-2.1,0.3-2.6c0.2-0.6,0.5-1.1,0.9-1.6c1-1.2,2.4-1.8,4.1-1.7c1.7,0.1,3,0.8,4,2
			c0.7,0.9,1,2.3,0.9,4.1c-0.4,7.1-0.6,10.6-1,17.7c-0.1,1.1-0.2,1.8-0.3,2.3c-0.1,0.5-0.4,1-0.7,1.5c-1,1.5-2.5,2.2-4.3,2.1
			c-1.6-0.1-2.9-0.8-3.8-2.1c-0.4-0.5-0.6-1.1-0.7-1.6c-0.1-0.6-0.1-1.5-0.1-2.7c0.1-1.7,0.1-2.6,0.2-4.3
			C449.2,908.6,448,908.5,445.5,908.4z M437.6,894.5c-0.2,7.5-0.2,11.2-0.4,18.7c0,1.4,0.2,2.3,0.7,2.9c0.6,0.6,1.2,0.9,2.1,1
			c0.7,0,1-0.3,1-0.8c0-0.3,0-0.4-0.2-0.5c-0.1-0.1-0.4-0.2-0.9-0.3c-0.5-0.1-0.8-0.4-1-0.8c-0.2-0.4-0.3-1.1-0.2-1.9
			c0.2-7.3,0.3-10.9,0.4-18.2c0-0.7-0.2-1.1-0.8-1.1c-0.3,0-0.5,0.1-0.6,0.2C437.7,893.8,437.6,894.1,437.6,894.5z M439.2,891.2
			c-0.2,0-0.4,0.1-0.6,0.2c-0.2,0.2-0.3,0.4-0.3,0.6c0,0.2,0.1,0.4,0.3,0.6c0.2,0.2,0.4,0.3,0.6,0.3c0.2,0,0.4-0.1,0.6-0.2
			s0.3-0.4,0.3-0.6c0-0.2-0.1-0.4-0.2-0.6C439.6,891.3,439.4,891.2,439.2,891.2z M451.4,905.4c-2.1-0.1-3.2-0.1-5.3-0.2
			c-0.8,0-1.2,0.2-1.2,0.7s0.4,0.8,1.1,0.8c2.1,0.1,3.2,0.1,5.3,0.2c0.8,0,1.4,0.2,1.7,0.5c0.3,0.3,0.4,0.9,0.4,1.8
			c-0.1,1.7-0.1,2.6-0.2,4.3c0,1,0,1.7,0.2,2.2c0.2,0.5,0.5,0.9,1,1.3c0.5,0.4,1.1,0.6,1.5,0.6c0.7,0,1-0.2,1-0.8
			c0-0.2,0-0.4-0.2-0.5c-0.1-0.1-0.4-0.2-0.9-0.4c-0.4-0.1-0.8-0.4-1-0.7c-0.2-0.3-0.2-0.9-0.2-1.7c0.1-1.7,0.1-2.5,0.2-4.2
			C455,906.8,453.8,905.5,451.4,905.4z M454,895.1c-0.1,1.7-0.1,2.6-0.2,4.3c0,0.7,0.2,1,0.7,1c0.5,0,0.8-0.3,0.9-1
			c0.1-1.7,0.1-2.6,0.2-4.3c0-0.7-0.2-1-0.7-1.1c-0.3,0-0.5,0.1-0.6,0.2C454.1,894.4,454,894.7,454,895.1z M455.7,891.8
			c-0.2,0-0.4,0.1-0.6,0.2c-0.2,0.2-0.3,0.4-0.3,0.6c0,0.2,0.1,0.5,0.2,0.6c0.2,0.2,0.4,0.3,0.6,0.3c0.2,0,0.4-0.1,0.6-0.2
			c0.2-0.2,0.3-0.4,0.3-0.6c0-0.2-0.1-0.4-0.2-0.6C456.1,891.9,455.9,891.8,455.7,891.8z"/>
		<path class="st30" d="M476.5,896.5c-0.3,4.6-0.5,6.9-0.9,11.5c-0.1,1,0.1,1.8,0.5,2.5c0.4,0.6,1.1,1,2,1.1
			c0.8,0.1,1.5-0.2,2.1-0.7c0.5-0.5,0.9-1.3,0.9-2.3c0.4-4.7,0.6-7,1-11.7c0.1-1.2,0.2-2,0.4-2.4c0.1-0.4,0.5-0.9,1-1.4
			c1.1-1.1,2.5-1.6,4.1-1.5c1.6,0.1,2.9,0.8,3.8,2.1c0.4,0.6,0.7,1.2,0.8,1.8c0,0.3,0.1,0.7,0.1,1.2c0,0.5,0,1.1-0.1,1.8
			c-0.4,4.1-0.6,6.2-1,10.3c-0.4,3.8-1.7,6.8-4,8.9c-1.4,1.3-3,2.3-4.9,2.9c-0.8,0.3-1.6,0.4-2.4,0.6c-0.8,0.1-1.7,0.1-2.5,0.1
			c-2.3-0.2-4.4-0.9-6.3-2.3c-2.4-1.7-4.1-4-5-6.9c-0.4-1.3-0.5-3.1-0.4-5.2c0.2-4.1,0.4-6.2,0.6-10.3c0.1-1.4,0.2-2.4,0.4-2.9
			c0.2-0.5,0.5-1,1-1.6c1.1-1.2,2.5-1.7,4.2-1.6c1.5,0.1,2.7,0.7,3.6,1.8c0.4,0.5,0.8,1.1,0.9,1.7
			C476.5,894.5,476.5,895.4,476.5,896.5z M468.9,907c0.3-4.2,0.4-6.4,0.7-10.6c0-0.6,0-0.9-0.1-1.1c-0.1-0.2-0.3-0.3-0.6-0.3
			c-0.3,0-0.5,0.1-0.6,0.3c-0.1,0.2-0.2,0.6-0.2,1.1c-0.3,4.2-0.4,6.4-0.7,10.6c-0.1,0.8-0.1,1.5,0,2.2c0,0.7,0.1,1.3,0.2,1.8
			c0.2,1,0.5,2.1,1.1,3c1.1,1.9,2.6,3.3,4.5,4.4c1.3,0.7,2.7,1.1,4.2,1.2c1.2,0.1,2.3,0,3.3-0.2c1-0.2,1.5-0.6,1.5-1
			c0-0.2,0-0.3-0.1-0.5c-0.1-0.2-0.3-0.3-0.4-0.3c-0.2,0-0.5,0.1-1,0.2c-0.3,0.1-0.8,0.2-1.3,0.3c-0.5,0-1.1,0-1.8,0
			c-2.7-0.2-4.9-1.3-6.5-3.4c-0.8-1-1.3-2.1-1.6-3.3C468.9,910.1,468.8,908.7,468.9,907z M470,892.6c-0.2,0-0.4,0.1-0.6,0.2
			c-0.2,0.2-0.3,0.3-0.3,0.6c0,0.2,0.1,0.4,0.2,0.6s0.4,0.3,0.6,0.3c0.2,0,0.4-0.1,0.6-0.2c0.2-0.2,0.3-0.4,0.3-0.6
			c0-0.2-0.1-0.4-0.2-0.6S470.3,892.6,470,892.6z M483.8,897.5c-0.4,4.4-0.6,6.6-0.9,11.1c-0.1,0.9-0.2,1.5-0.4,2
			c-0.2,0.5-0.6,1-1.1,1.7c-0.2,0.2-0.3,0.4-0.3,0.6c-0.1,0.5,0.2,0.8,0.6,0.8c0.4,0,0.9-0.4,1.5-1.2c0.4-0.6,0.7-1.2,0.9-1.6
			c0.1-0.2,0.1-0.5,0.2-0.9c0.1-0.4,0.1-0.8,0.2-1.4c0.4-4.4,0.6-6.6,0.9-11c0-0.5,0-0.9-0.1-1.1c-0.1-0.2-0.3-0.3-0.6-0.3
			c-0.3,0-0.5,0.1-0.6,0.2C483.9,896.6,483.9,897,483.8,897.5z M485.7,893.9c-0.2,0-0.4,0-0.7,0.2c-0.2,0.1-0.3,0.3-0.3,0.6
			c0,0.2,0,0.5,0.2,0.6c0.2,0.2,0.4,0.3,0.6,0.3c0.2,0,0.5,0,0.7-0.2s0.3-0.3,0.3-0.6C486.5,894.3,486.2,894,485.7,893.9z"/>
		<path class="st30" d="M514.6,912.9c0.7,1.6,1.1,2.4,1.8,3.9c0.5,1.1,0.7,2.2,0.5,3.2c-0.2,1.3-0.8,2.4-1.9,3.2
			c-1.1,0.8-2.3,1.1-3.7,0.9c-1.7-0.2-3-1.1-3.7-2.7c-1.3-2.8-2-4.3-3.3-7.1c-0.2,1.6-0.3,2.4-0.4,4c-0.2,1.4-0.8,2.5-1.8,3.3
			s-2.2,1.1-3.5,1c-1.6-0.2-2.8-0.9-3.6-2.2c-0.7-1-0.9-2.4-0.8-4.2c0.7-7.2,1.1-10.8,1.8-18c0.2-1.9,0.8-3.2,2-4
			c1.1-0.8,2.7-1.1,4.9-0.9c2.6,0.3,3.9,0.4,6.4,0.7c2.1,0.2,4,1.1,5.8,2.6c1.6,1.3,2.7,3,3.3,4.9c0.4,1.5,0.6,2.9,0.4,4.3
			c-0.2,1.4-0.6,2.7-1.3,3.8C516.9,910.8,516,911.8,514.6,912.9z M497.9,898.6c-0.7,7.2-1.1,10.7-1.9,17.9c-0.2,1.6,0,2.7,0.4,3.2
			c0.5,0.7,1.2,1.1,2.1,1.2c0.7,0.1,1-0.2,1.1-0.7c0-0.2,0-0.4-0.1-0.5c-0.1-0.1-0.4-0.2-0.9-0.4c-0.5-0.2-0.9-0.5-1-0.9
			c-0.2-0.4-0.2-1-0.1-1.8c0.8-7.2,1.1-10.8,1.9-17.9c0.1-0.9-0.1-1.3-0.7-1.4C498.3,897.3,498,897.8,497.9,898.6z M499.7,895.2
			c-0.2,0-0.4,0-0.7,0.2c-0.2,0.1-0.3,0.3-0.4,0.6c0,0.2,0,0.4,0.2,0.6c0.2,0.2,0.4,0.3,0.6,0.3c0.2,0,0.4,0,0.7-0.2
			c0.2-0.2,0.3-0.3,0.4-0.6c0-0.2,0-0.4-0.2-0.6C500.1,895.3,499.9,895.2,499.7,895.2z M507.2,899.8c-0.7-0.1-1.1-0.1-1.4,0
			c-0.2,0.1-0.3,0.3-0.4,0.6c0,0.3,0,0.5,0.2,0.6c0.1,0.1,0.5,0.2,0.9,0.3c1.2,0.1,2.1,0.4,2.7,0.6s1,0.7,1.2,1.3
			c0.3,0.6,0.4,1.3,0.2,2.1c-0.1,0.6,0.1,1,0.7,1.1c0.5,0.1,0.8-0.3,0.9-1.1c0.2-1.6-0.2-3-1.4-4C510,900.5,508.8,900,507.2,899.8z
			 M505.8,902.7c-0.1,1.3-0.2,1.9-0.4,3.1c0.4,0.1,0.7,0.1,1.1,0.2c1.5,0.2,2.3-0.2,2.5-1.3c0-0.3-0.1-0.7-0.3-1
			c-0.2-0.3-0.4-0.6-0.8-0.7c-0.1,0-0.3-0.1-0.7-0.2C506.8,902.9,506.3,902.8,505.8,902.7z M505.2,911.8c1.5,3.2,2.3,4.8,3.8,8.1
			c0.4,0.9,0.8,1.5,1.2,1.9c0.4,0.4,0.9,0.6,1.5,0.7c0.8,0.1,1.2-0.1,1.2-0.6c0.1-0.4-0.3-0.8-0.9-0.9c-0.7-0.2-1.2-0.7-1.6-1.4
			c-1.4-3.2-2.2-4.9-3.7-8.1c-0.3-0.6-0.6-0.9-0.9-1c-0.5-0.1-0.7,0.2-0.8,0.6C504.9,911.2,505,911.5,505.2,911.8z"/>
		<path class="st30" d="M540.9,916.8c0.7,1.6,1,2.4,1.7,4c0.5,1.1,0.6,2.2,0.4,3.3c-0.2,1.3-0.9,2.3-2,3.1c-1.1,0.7-2.3,1-3.7,0.8
			c-1.7-0.3-2.9-1.2-3.6-2.9c-1.2-2.9-1.8-4.3-3.1-7.2c-0.2,1.6-0.4,2.4-0.6,3.9c-0.2,1.4-0.9,2.5-1.9,3.3c-1.1,0.8-2.3,1.1-3.5,0.9
			c-1.6-0.2-2.7-1-3.5-2.3c-0.6-1-0.8-2.5-0.6-4.3c1-7.2,1.5-10.8,2.5-17.9c0.3-1.9,1-3.2,2.1-4c1.1-0.8,2.8-1,4.9-0.7
			c2.6,0.4,3.9,0.6,6.4,1c2.1,0.3,4,1.2,5.7,2.8c1.5,1.4,2.6,3,3.1,5c0.4,1.5,0.5,2.9,0.2,4.3c-0.2,1.4-0.7,2.6-1.4,3.7
			C543.3,914.7,542.3,915.8,540.9,916.8z M524.7,901.9c-1,7.1-1.5,10.7-2.5,17.8c-0.2,1.6-0.1,2.7,0.3,3.3c0.5,0.7,1.2,1.1,2,1.3
			c0.7,0.1,1.1-0.1,1.1-0.7c0-0.2,0-0.4-0.1-0.5c-0.1-0.1-0.4-0.2-0.8-0.4c-0.5-0.2-0.8-0.5-1-0.9c-0.2-0.4-0.2-1-0.1-1.8
			c1-7.1,1.5-10.7,2.6-17.8c0.1-0.9-0.1-1.3-0.6-1.4C525.1,900.6,524.8,901,524.7,901.9z M526.6,898.5c-0.2,0-0.4,0-0.7,0.2
			c-0.2,0.1-0.3,0.3-0.4,0.6c0,0.2,0,0.4,0.2,0.6c0.2,0.2,0.3,0.3,0.6,0.4c0.2,0,0.4,0,0.7-0.2c0.2-0.1,0.3-0.3,0.4-0.6
			c0-0.2,0-0.4-0.2-0.6C527.1,898.7,526.9,898.6,526.6,898.5z M534,903.4c-0.7-0.1-1.1-0.1-1.4-0.1c-0.2,0.1-0.4,0.2-0.4,0.6
			c0,0.3,0,0.5,0.1,0.6c0.1,0.1,0.5,0.2,0.9,0.3c1.2,0.2,2.1,0.4,2.6,0.7c0.5,0.3,0.9,0.8,1.2,1.4s0.3,1.3,0.2,2.1
			c-0.1,0.6,0.1,1,0.6,1.1c0.5,0.1,0.8-0.3,1-1.1c0.3-1.6-0.1-3-1.2-4.1C536.8,904.2,535.6,903.7,534,903.4z M532.5,906.3
			c-0.2,1.3-0.3,1.9-0.5,3.1c0.4,0.1,0.7,0.1,1.1,0.2c1.5,0.2,2.4-0.2,2.5-1.2c0.1-0.3,0-0.7-0.2-1c-0.2-0.3-0.4-0.6-0.8-0.7
			c-0.1,0-0.3-0.1-0.7-0.2C533.5,906.5,533,906.4,532.5,906.3z M531.5,915.3c1.4,3.3,2.1,4.9,3.5,8.2c0.4,0.9,0.7,1.5,1.1,1.9
			c0.4,0.4,0.9,0.6,1.5,0.7c0.7,0.1,1.2-0.1,1.2-0.6c0.1-0.4-0.2-0.8-0.9-1c-0.7-0.2-1.2-0.7-1.6-1.5c-1.3-3.3-2-4.9-3.4-8.2
			c-0.3-0.6-0.6-1-0.9-1c-0.5-0.1-0.7,0.1-0.8,0.6C531.3,914.7,531.4,915,531.5,915.3z"/>
		<path class="st30" d="M565.8,902.2c3.1,0.6,5.8,2,8,4c2.2,2,3.7,4.5,4.5,7.4c0.6,2.3,0.7,4.7,0.2,7c-0.5,2.5-1.7,4.7-3.3,6.6
			c-1.9,2.2-4.2,3.8-7,4.7c-2.8,0.9-5.6,1.1-8.5,0.5c-2.9-0.6-5.4-1.9-7.7-3.9c-2.2-2-3.7-4.3-4.5-7.1c-0.7-2.3-0.8-4.8-0.4-7.4
			c0.4-2.1,1.2-4.1,2.5-5.9c1.8-2.5,4.1-4.3,7.1-5.4c1.4-0.5,2.9-0.9,4.4-1C562.6,901.8,564.1,901.9,565.8,902.2z M553.4,907.3
			c-0.2,0-0.4,0-0.6,0.2c-0.2,0.2-0.6,0.6-1.2,1.2c-1.4,1.7-2.3,3.7-2.8,6.1c-0.2,1.2-0.3,2.5-0.1,3.7c0.1,1.2,0.5,2.4,1,3.7
			c1,2.5,2.7,4.6,5,6.3c1.7,1.2,3.5,2,5.5,2.4c1.7,0.3,3.6,0.3,5.6,0c1.1-0.2,1.6-0.5,1.7-0.9c0-0.2,0-0.3-0.1-0.5
			c-0.1-0.2-0.3-0.3-0.5-0.3c-0.1,0-0.4,0-0.8,0.1c-1.8,0.5-3.7,0.6-5.7,0.2c-3.1-0.6-5.7-2.2-7.7-4.7c-1.1-1.5-1.9-3.1-2.3-4.9
			c-0.3-1.5-0.4-3.1-0.1-4.6c0.2-1.1,0.6-2.2,1.1-3.4c0.6-1.2,1.2-2.1,1.9-2.7c0.3-0.3,0.5-0.6,0.6-0.7c0-0.2,0-0.4-0.2-0.6
			C553.8,907.5,553.6,907.4,553.4,907.3z M555.4,905.7c-0.3,0-0.5,0-0.7,0.1c-0.2,0.1-0.3,0.3-0.4,0.6c0,0.2,0,0.4,0.2,0.6
			c0.1,0.2,0.3,0.3,0.6,0.4c0.2,0,0.4,0,0.7-0.1c0.2-0.1,0.4-0.3,0.4-0.6c0-0.2,0-0.4-0.1-0.6C555.8,905.9,555.6,905.8,555.4,905.7z
			 M563.9,911.8c-1.8-0.4-3.5,0.1-4.9,1.2c-1,0.8-1.7,1.9-2,3.2c-0.3,1.8,0.1,3.4,1.3,4.8c0.9,1.1,2,1.7,3.3,2
			c1.5,0.3,2.9,0,4.3-0.8c1.4-0.8,2.2-2.1,2.6-3.7c0.3-1.6,0-3-0.9-4.3c-0.5-0.6-1-1.2-1.6-1.6C565.4,912.2,564.7,911.9,563.9,911.8
			z M564.5,908.7c-0.6-0.1-1.2-0.2-1.7-0.2c-0.6,0-1.1,0-1.7,0.1c-1.1,0.2-1.6,0.5-1.7,0.9c0,0.2,0,0.3,0.1,0.5s0.3,0.3,0.5,0.3
			c0.1,0,0.4,0,0.8-0.1c1.1-0.3,2.3-0.3,3.4-0.1c2.3,0.5,4,1.6,5.2,3.5c0.5,0.8,0.8,1.7,1,2.6c0.2,0.9,0.1,1.8-0.1,2.8
			c-0.2,0.8-0.5,1.6-1.1,2.6c-0.1,0.2-0.1,0.3-0.2,0.5c0,0.2,0,0.4,0.1,0.5c0.1,0.2,0.3,0.3,0.5,0.3c0.4,0.1,0.8-0.2,1.3-1
			c0.5-0.7,0.8-1.6,1-2.7c0.3-1.2,0.2-2.4,0-3.7c-0.3-1.3-0.8-2.4-1.5-3.3c-0.7-1-1.6-1.7-2.5-2.3
			C566.8,909.3,565.7,908.9,564.5,908.7z"/>
		<path class="st30" d="M584.2,925.6c1.1,0.2,2.1,1,3.1,2.2c0.9,1,1.4,1.7,1.7,1.9c0.3,0.3,0.6,0.4,1,0.5c0.3,0.1,0.7,0,1-0.1
			c0.3-0.2,0.5-0.4,0.6-0.8c0.1-0.4,0-0.9-0.5-1.3c-0.2-0.2-1.5-1.1-4-2.6c-4-2.5-5.6-5.7-4.7-9.7c0.7-3,2.4-5.1,5.1-6.4
			c2.4-1.1,5.1-1.2,8.2-0.5c2.6,0.6,4.7,1.8,6.4,3.4c0.8,0.8,1.3,1.6,1.6,2.6c0.3,0.9,0.4,1.8,0.1,2.7c-0.3,1.1-0.9,1.9-1.8,2.5
			c-0.9,0.6-1.9,0.7-3.1,0.4c-1.2-0.3-2.4-1.2-3.6-2.6c-0.8-0.9-1.4-1.4-1.8-1.5c-0.3-0.1-0.6,0-0.9,0.1s-0.5,0.4-0.6,0.7
			c-0.1,0.4,0,0.8,0.4,1.2c0.3,0.3,1,0.8,2.1,1.5c2.6,1.5,4.4,3,5.6,4.6c0.7,0.9,1.2,2.1,1.4,3.4c0.2,1.4,0.2,2.7-0.2,4
			c-0.7,2.7-2.2,4.8-4.5,6.1c-2.5,1.4-5.5,1.7-9.1,0.8c-3.2-0.8-5.7-2.3-7.5-4.4c-1.4-1.8-1.9-3.5-1.5-5.3c0.3-1.2,1-2.2,2.1-2.8
			C581.9,925.5,583.1,925.4,584.2,925.6z M596,934.9c-0.2-0.1-0.8,0.1-1.6,0.5c-1.5,0.6-3.3,0.7-5.5,0.2c-2.3-0.5-4.1-1.5-5.5-3
			c-1-1-1.4-2-1.2-2.9c0.1-0.3,0.3-0.6,0.7-1c0.2-0.2,0.3-0.4,0.4-0.5c0.1-0.2,0-0.4-0.1-0.5c-0.1-0.2-0.3-0.3-0.5-0.4
			c-0.4-0.1-0.8,0-1.2,0.4c-0.4,0.4-0.7,0.9-0.8,1.5c-0.2,0.8-0.1,1.6,0.2,2.5c0.3,0.9,0.9,1.7,1.7,2.4c1.6,1.5,3.6,2.5,6,3.1
			c2.4,0.6,4.6,0.5,6.6-0.3c0.9-0.3,1.4-0.7,1.5-1.1C596.6,935.3,596.5,935,596,934.9z M586.7,912.5c-0.4-0.1-0.9,0.1-1.4,0.7
			c-0.5,0.6-0.8,1.4-1,2.4c-0.5,2.1-0.2,4,1,5.7c0.8,1.1,2.6,2.5,5.5,4.4c1.1,0.7,1.8,1.3,2.1,1.8c0.3,0.5,0.4,1.2,0.2,2.2
			c-0.1,0.5,0.1,0.8,0.6,0.9c0.5,0.1,0.9-0.2,1.1-1.1c0.2-0.9,0.1-1.8-0.4-2.6c-0.5-0.8-1.5-1.7-3-2.7c-2.3-1.5-3.9-2.7-4.6-3.6
			c-0.4-0.5-0.8-1.2-0.9-2c-0.1-0.4-0.1-0.7-0.1-1.1c0-0.4,0-0.8,0.1-1.1c0.1-0.3,0.2-0.7,0.3-1c0.2-0.3,0.4-0.8,0.7-1.2
			c0-0.1,0.1-0.2,0.2-0.3c0.1-0.1,0.1-0.3,0.2-0.3C587.4,913,587.2,912.6,586.7,912.5z M588.6,910.9c-0.2-0.1-0.4,0-0.7,0.1
			s-0.4,0.3-0.4,0.5c-0.1,0.2,0,0.5,0.1,0.7c0.1,0.2,0.4,0.3,0.6,0.4c0.2,0.1,0.5,0,0.7-0.1c0.2-0.1,0.3-0.3,0.4-0.5
			c0-0.2,0-0.4-0.1-0.6C589,911.1,588.8,911,588.6,910.9z M598.5,916.5c-0.7-0.8-1.1-1.1-1.8-1.9c-0.7-0.8-1.5-1.2-2.3-1.4
			c-0.5-0.1-0.9-0.1-1.3,0c-0.4,0.1-0.6,0.3-0.7,0.6c-0.1,0.5,0,0.8,0.4,0.9c0.3,0,0.5,0,0.8,0c0.2,0,0.3,0,0.4,0
			c0.4,0.1,0.9,0.4,1.5,1.1c0.7,0.7,1,1,1.7,1.7c0.8,0.8,1.5,1.3,2.1,1.4c0.6,0.2,1.2,0.1,1.6-0.1c0.5-0.2,0.8-0.6,0.9-1.1
			c0.1-0.5-0.1-0.8-0.6-1c-0.2-0.1-0.5,0-0.7,0.2c-0.4,0.3-0.7,0.4-1.1,0.3C599.2,917.1,598.9,916.9,598.5,916.5z"/>
	</g>
</g>
</svg>
